<svg width="20" height="20" viewBox="0 0 20 20" fill="none" xmlns="http://www.w3.org/2000/svg">
<g clip-path="url(#clip0_25_6925)">
<path d="M9.60363 1.89535C7.39569 2.10122 5.78543 3.77298 5.50388 4.07327C5.40015 4.18473 3.68451 6.06235 3.72238 7.84401C3.72732 8.04524 3.76189 8.635 3.60383 9.40741C3.54126 9.71081 3.454 10.1226 3.2169 10.6086C2.95676 11.1457 2.80528 11.172 2.26688 12.0188C1.931 12.5451 1.76305 12.8144 1.70213 13.1224C1.58194 13.74 1.79434 14.2509 1.86514 14.4072C2.19279 15.1177 2.82998 15.4567 3.39472 15.7477C3.65158 15.8793 4.11918 16.096 5.62242 16.404C6.4539 16.5743 7.1092 16.709 8.01313 16.7956C10.2491 17.0093 11.9812 16.7368 13.3675 16.5093C14.8625 16.2632 15.5178 16.0248 15.8241 15.9025C16.7724 15.5279 17.8608 15.0976 18.2148 14.1146C18.4519 13.4568 18.2609 12.8237 18.2444 12.7741C18.0946 12.3036 17.8591 12.1983 17.4426 11.4754C17.3257 11.2727 17.0787 10.8392 16.9223 10.3439C16.728 9.72629 16.8334 9.51112 16.7889 8.33316C16.7527 7.37344 16.7329 6.85179 16.537 6.21096C16.3164 5.49272 15.9871 4.99584 15.8092 4.73114C15.6067 4.4293 14.7176 3.16155 12.9723 2.38604C12.4093 2.13528 11.9087 2.05788 11.6502 2.00835C11.6008 1.99906 10.5619 1.80712 9.60034 1.8969L9.60363 1.89535Z" fill="#FFF7E2"/>
<path d="M8.99095 1.98226C8.2917 2.11302 6.99988 2.45111 5.5032 4.05372C5.41008 4.15259 3.68313 6.04064 3.72038 7.82982C3.72546 8.03074 3.75932 8.62235 3.60187 9.39575C3.53922 9.69873 3.45118 10.1117 3.21584 10.5981C2.95511 11.1355 2.80442 11.1626 2.26602 12.011C1.93079 12.5372 1.76149 12.8067 1.70223 13.116C1.58202 13.7348 1.79365 14.2466 1.86476 14.4029C2.19153 15.1141 2.82813 15.4538 3.39362 15.7456C3.65097 15.8779 4.11826 16.0948 5.62171 16.4026C6.45302 16.5732 7.10824 16.7072 8.01234 16.7949C10.2489 17.0085 11.9809 16.7359 13.3676 16.5078C14.8626 16.2623 15.5178 16.0215 15.8242 15.9003C16.774 15.5239 17.861 15.0934 18.2149 14.1095C18.4519 13.4493 18.2606 12.8162 18.2453 12.7668C18.0963 12.2964 17.8593 12.1896 17.4428 11.4656C17.326 11.2631 17.0788 10.8277 16.923 10.3334C16.7283 9.71468 16.8333 9.4994 16.7893 8.31937C16.7537 7.3594 16.7334 6.83636 16.537 6.19372C16.3169 5.47454 15.9868 4.97542 15.809 4.71071C15.6075 4.40932 14.7169 3.1384 12.9731 2.36022C12.3771 2.09551 12.0791 1.96315 11.6508 1.98229C10.3132 2.04448 9.47517 3.48443 9.34819 3.7029C8.57953 5.02485 8.82164 6.44886 8.99095 7.45189C9.10777 8.13758 9.29231 8.68933 9.43623 9.06088" stroke="#3A643B" stroke-width="0.7" stroke-miterlimit="10" stroke-linecap="round"/>
<path d="M8.88454 6.12891C9.16828 6.21345 10.0253 6.50862 10.5637 7.37334C11.1879 8.37601 11.1268 9.73911 10.4138 10.8501C10.0239 10.7714 9.45639 10.5935 8.90491 10.1663C8.58916 9.92155 8.16574 9.59375 7.94166 8.97969C7.70302 8.32855 7.83543 7.75602 7.87618 7.58693C8.08862 6.71775 8.70993 6.25202 8.88454 6.12891Z" stroke="#3A643B" stroke-width="0.7" stroke-miterlimit="10"/>
<path d="M10.834 17.9342C11.3289 18.2638 12.1135 18.406 12.8325 18.2974C13.5065 18.1951 14.0203 17.8882 14.1673 17.5" stroke="#3A643B" stroke-width="0.7" stroke-miterlimit="10" stroke-linecap="round"/>
</g>
<defs>
<clipPath id="clip0_25_6925">
<rect width="20" height="20" fill="white"/>
</clipPath>
</defs>
</svg>
