<svg width="18" height="17" viewBox="0 0 18 17" fill="none" xmlns="http://www.w3.org/2000/svg">
<path d="M6.89257 4.97291C7.56984 4.19903 7.49144 3.02065 6.71757 2.34335L4.56531 0.461519C4.1903 0.133112 3.70963 -0.0305245 3.21532 0.0047046C2.7176 0.0365242 2.26419 0.260387 1.93805 0.63653L0.867594 1.85812C0.192598 2.62856 -0.109686 3.64674 0.0357681 4.65358C0.303948 6.49788 1.27554 9.2991 4.4029 12.1797L5.69721 13.3138C8.98128 16.0717 11.9107 16.6741 13.7926 16.6967H13.8335C14.8403 16.6967 15.7938 16.2638 16.4608 15.5013L17.5313 14.2797C18.2085 13.5058 18.1301 12.3274 17.3563 11.6501L15.2097 9.77061C14.8347 9.4422 14.3517 9.27857 13.854 9.3138C13.3563 9.34902 12.8994 9.57516 12.5744 9.95356L11.9608 10.6604C11.7051 10.957 11.3096 11.0854 10.9517 10.9831C8.4176 10.2706 6.86994 8.0797 6.17205 6.83767C5.95955 6.45925 6.00614 5.98539 6.29137 5.66265L6.89257 4.97291ZM6.01644 4.20587L5.4085 4.90132C4.80056 5.59676 4.696 6.60587 5.14941 7.41154C5.93463 8.81041 7.69146 11.2809 10.6301 12.1071C11.4188 12.3287 12.2858 12.0605 12.8347 11.423L13.446 10.7162C13.5688 10.5741 13.7404 10.4889 13.9256 10.4753C14.1119 10.4639 14.2926 10.5253 14.4347 10.6469L16.5813 12.5264C16.8722 12.7798 16.9017 13.2241 16.6483 13.5128L15.5778 14.7343C15.1267 15.2491 14.4779 15.54 13.8006 15.5309C12.1108 15.5105 9.45962 14.9548 6.4493 12.4264L5.17543 11.3093C2.30951 8.66842 1.42329 6.13987 1.18445 4.48198C1.089 3.81265 1.289 3.13198 1.74015 2.61719L2.81061 1.39561C2.93333 1.25583 3.10492 1.17174 3.29014 1.15697C3.30491 1.15697 3.32196 1.15356 3.33673 1.15356C3.50491 1.15356 3.66854 1.21492 3.79581 1.32856L5.94808 3.21039C6.24012 3.47176 6.26986 3.91496 6.01644 4.20587Z" fill="#3A643B"/>
</svg>
