<svg width="48" height="48" viewBox="0 0 48 48" fill="none" xmlns="http://www.w3.org/2000/svg">
<path d="M39.4386 24C41.8022 21.5174 43.3226 18.3698 43.998 16.7723C42.7844 13.901 38.8382 6 32.1596 6C28.6778 6 26 8 24 10C22 8 19.3187 6 15.8363 6C9.15764 6 5.21358 13.8986 4 16.7699C4.67536 18.3674 6.1938 21.5174 8.55736 24M37.996 16.7723H43.0522M9.9961 16.7699H4.81648" stroke="#3A643C" stroke-width="2" stroke-linecap="round" stroke-linejoin="round"/>
<path d="M24 18L24.5404 17.4527C25.4586 16.5225 26.704 16 28.0028 16C30.2828 16 32.2612 17.5941 32.774 19.8445L34.7136 28.3586C36.3036 35.3372 31.0708 42 24 42C16.9291 42 11.6964 35.3372 13.2863 28.3586L15.2261 19.8445C15.7388 17.5941 17.7171 16 19.9973 16C21.296 16 22.5414 16.5225 23.4596 17.4527L24 18ZM24 18V24" stroke="#3A643C" stroke-width="2" stroke-linecap="round" stroke-linejoin="round"/>
</svg>
