<svg width="48" height="48" viewBox="0 0 48 48" fill="none" xmlns="http://www.w3.org/2000/svg">
<path d="M18 26H19.6006C20.8608 26 21.4908 26 21.997 26.2986C22.5034 26.5974 22.7852 27.1354 23.3486 28.2112L26.381 34L30.5714 22L33.6036 27.7888C34.1672 28.8646 34.449 29.4026 34.9554 29.7014C35.4616 30 36.0916 30 37.3518 30H40" stroke="#3A643C" stroke-width="2" stroke-linecap="round" stroke-linejoin="round"/>
<path d="M41 24C39.464 16.8308 33.4474 10.0774 29.0482 5.94444C26.2886 3.35186 22.08 3.35186 19.3204 5.94444C14.2392 10.7181 7 18.9877 7 27.356C7 35.5608 13.5073 44 24.1842 44C30.9702 44 36.0718 40.591 38.8888 36" stroke="#3A643C" stroke-width="2" stroke-linecap="round"/>
</svg>
