<svg width="29" height="40" viewBox="0 0 29 40" fill="none" xmlns="http://www.w3.org/2000/svg">
<mask id="path-1-inside-1_26_7338" fill="white">
<path d="M29 15.3213C29.0001 14.2042 28.7242 13.1044 28.1966 12.1197C27.6691 11.135 26.9064 10.2959 25.9763 9.67716C25.0462 9.0584 23.9776 8.67912 22.8656 8.57306C21.7535 8.46699 20.6325 8.63743 19.6022 9.06921V7.44667C19.6022 6.29566 19.145 5.19179 18.3311 4.37789C17.5172 3.564 16.4134 3.10676 15.2623 3.10674H11.0899C10.9555 3.10674 10.8224 3.08027 10.6982 3.02883C10.574 2.97739 10.4612 2.902 10.3662 2.80696C10.2711 2.71191 10.1957 2.59908 10.1443 2.4749C10.0929 2.35072 10.0664 2.21762 10.0664 2.08321V0H7.6344V2.93696C7.6344 3.29402 7.70473 3.64759 7.84137 3.97748C7.97802 4.30736 8.1783 4.6071 8.43078 4.85958C8.68326 5.11206 8.983 5.31234 9.31289 5.44899C9.64277 5.58563 9.99634 5.65596 10.3534 5.65596V10.129C10.3534 10.9603 10.0231 11.7576 9.43529 12.3455C8.84743 12.9333 8.05012 13.2636 7.21877 13.2636H6.92183C6.23002 13.2635 5.55171 13.4551 4.96225 13.8173C4.37279 14.1794 3.89525 14.6979 3.58266 15.315C3.10272 15.0874 2.5629 15.0181 2.04102 15.117C1.51913 15.2159 1.04213 15.478 0.678742 15.8654C0.315356 16.2528 0.0843588 16.7456 0.0190386 17.2727C-0.0462815 17.7999 0.0574494 18.3342 0.315282 18.7986C0.0776351 19.2266 -0.0294532 19.7149 0.00724013 20.2031C0.0439335 20.6913 0.222802 21.158 0.52176 21.5457C0.183584 21.9844 0.000179874 22.5227 0.000179874 23.0766C0.000179874 23.6305 0.183584 24.1688 0.52176 24.6075C0.183584 25.0462 0.000179205 25.5845 0.000179205 26.1384C0.000179205 26.6922 0.183584 27.2305 0.52176 27.6692C0.250379 28.0213 0.0774253 28.4392 0.0205996 28.88C-0.0362262 29.3209 0.025117 29.769 0.198351 30.1784C0.371585 30.5878 0.650489 30.9438 1.00651 31.21C1.36254 31.4762 1.7829 31.643 2.22458 31.6934C2.46187 31.7195 2.70167 31.7119 2.93684 31.6709C3.12097 32.3967 3.54155 33.0405 4.13222 33.5007C4.72289 33.9609 5.45 34.2113 6.19879 34.2124H9.52634C9.52271 34.2436 9.51923 34.2749 9.51676 34.3064C9.47968 34.7553 9.56522 35.2059 9.76425 35.61C9.6243 35.8974 9.54037 36.209 9.51694 36.5278C9.51676 36.5307 9.51599 36.5399 9.51583 36.5427C9.51274 36.5901 9.51056 36.6377 9.51008 36.6844C9.5094 36.6983 9.50889 36.7123 9.50889 36.7265C9.50889 36.7493 9.50992 36.7719 9.51128 36.7944L9.51189 36.8058C9.51257 36.8245 9.51334 36.8431 9.51428 36.86C9.54102 37.3997 9.74288 37.916 10.0893 38.3308C10.1132 38.3595 10.1399 38.3858 10.1689 38.4092C10.498 38.7693 10.9247 39.0258 11.3971 39.1476C11.8694 39.2694 12.367 39.2512 12.8291 39.0952C13.2913 38.9392 13.6981 38.6522 14 38.2691C14.302 37.886 14.4859 37.4233 14.5295 36.9375C14.892 37.0301 15.2705 37.0408 15.6376 36.9688C16.0046 36.8968 16.3511 36.7439 16.6517 36.5212C17.104 36.8572 17.6564 37.0311 18.2197 37.0149C18.7829 36.9986 19.3243 36.7931 19.7566 36.4315C20.1888 36.07 20.4867 35.5734 20.6022 35.0218C20.7177 34.4703 20.6441 33.8959 20.3933 33.3913C20.6026 32.97 20.6893 32.4984 20.6434 32.0302C20.5975 31.562 20.421 31.1162 20.1338 30.7436C20.4728 30.3038 20.6562 29.764 20.6554 29.2087C20.6545 28.6535 20.4694 28.1143 20.129 27.6756C20.4694 27.2369 20.6545 26.6976 20.6554 26.1424C20.6563 25.5871 20.4728 25.0473 20.1338 24.6075C20.4372 24.2147 20.6168 23.7405 20.6499 23.2453C20.6829 22.7501 20.5677 22.2562 20.3191 21.8266C21.914 22.2946 23.6253 22.1587 25.1262 21.4448L27.7838 25.5303L28.739 24.9089L26.1106 20.8683C27.0025 20.2439 27.7308 19.4138 28.2338 18.4482C28.7368 17.4826 28.9996 16.41 29 15.3213ZM2.35021 30.5608C2.10539 30.5322 1.87282 30.4382 1.67703 30.2884C1.48123 30.1387 1.32948 29.939 1.23779 29.7102C1.1461 29.4814 1.11787 29.2321 1.15607 28.9886C1.19427 28.7451 1.2975 28.5164 1.45485 28.3267C1.60845 28.1425 1.69268 27.9102 1.69291 27.6703C1.69314 27.4304 1.60937 27.198 1.45613 27.0134C1.25177 26.7676 1.13982 26.458 1.13968 26.1384C1.13824 25.8185 1.25038 25.5084 1.45613 25.2634C1.60956 25.0793 1.69358 24.8472 1.69358 24.6075C1.69358 24.3678 1.60956 24.1357 1.45613 23.9516C1.25163 23.7059 1.13966 23.3963 1.13966 23.0767C1.13966 22.757 1.25163 22.4474 1.45613 22.2017C1.60958 22.0176 1.69361 21.7855 1.69361 21.5458C1.69361 21.3061 1.60958 21.074 1.45613 20.8899C1.25177 20.6441 1.13983 20.3345 1.13968 20.0149C1.13856 19.7021 1.24575 19.3986 1.44306 19.1558C1.52486 19.0545 1.56948 18.9282 1.56948 18.798C1.56948 18.6677 1.52486 18.5414 1.44306 18.4401C1.21696 18.1572 1.11212 17.7963 1.15147 17.4364C1.19082 17.0764 1.37117 16.7467 1.65305 16.5193C1.93492 16.292 2.29536 16.1856 2.6555 16.2234C3.01564 16.2612 3.34613 16.4401 3.57466 16.721C3.62808 16.7871 3.69559 16.8404 3.77226 16.877C3.84892 16.9136 3.9328 16.9326 4.01775 16.9326C4.1027 16.9326 4.18657 16.9136 4.26324 16.877C4.3399 16.8404 4.40741 16.7871 4.46083 16.721C4.57472 16.5798 4.71557 16.4626 4.87518 16.3763C5.03479 16.29 5.20998 16.2362 5.39054 16.2183C5.5711 16.2003 5.75344 16.2184 5.92693 16.2716C6.10042 16.3247 6.26161 16.4119 6.40111 16.5279C6.58524 16.6814 6.81734 16.7654 7.05703 16.7654C7.29672 16.7655 7.52883 16.6814 7.71298 16.528C7.98136 16.3047 8.32494 16.1924 8.67339 16.2142C9.02183 16.2359 9.3488 16.39 9.58735 16.6449C9.68379 16.7482 9.80043 16.8305 9.93003 16.8868C10.0596 16.9431 10.1994 16.9721 10.3407 16.9721C10.482 16.9721 10.6218 16.9431 10.7514 16.8868C10.881 16.8305 10.9976 16.7482 11.094 16.6449C11.3326 16.39 11.6595 16.2359 12.008 16.2141C12.3564 16.1924 12.7 16.3047 12.9684 16.528C13.1526 16.6814 13.3846 16.7654 13.6243 16.7654C13.864 16.7654 14.0961 16.6814 14.2802 16.528C14.448 16.3872 14.6475 16.2892 14.8615 16.2426C15.0755 16.1959 15.2976 16.2019 15.5088 16.26C15.6164 17.0338 15.858 17.7831 16.2228 18.474C16.1854 18.4963 16.1508 18.523 16.1195 18.5533C15.8779 18.7931 15.5556 18.9343 15.2155 18.9492C14.8754 18.9642 14.542 18.8518 14.2803 18.6341C14.0961 18.4807 13.864 18.3967 13.6243 18.3967C13.3847 18.3967 13.1526 18.4807 12.9684 18.6341C12.7 18.8574 12.3565 18.9696 12.008 18.9479C11.6596 18.9262 11.3326 18.7721 11.094 18.5172C10.9976 18.414 10.881 18.3316 10.7514 18.2753C10.6218 18.219 10.482 18.1899 10.3408 18.1899C10.1995 18.1899 10.0597 18.219 9.93009 18.2753C9.8005 18.3316 9.68386 18.4139 9.58743 18.5172C9.34888 18.7721 9.02192 18.9261 8.67348 18.9479C8.32504 18.9697 7.98147 18.8574 7.71306 18.6342C7.52893 18.4807 7.29683 18.3967 7.05714 18.3966C6.81745 18.3966 6.58534 18.4806 6.40119 18.6341C6.12455 18.8643 5.76834 18.9762 5.40975 18.9456C5.05116 18.915 4.71908 18.7443 4.48548 18.4705C4.38902 18.3579 4.25249 18.2874 4.10486 18.2738C3.95724 18.2603 3.81015 18.3048 3.69482 18.398C3.57949 18.4911 3.50501 18.6255 3.48718 18.7727C3.46935 18.9199 3.50957 19.0682 3.59932 19.1862C3.78679 19.4325 3.8852 19.735 3.87849 20.0445C3.87177 20.3539 3.76032 20.6519 3.56234 20.8899C3.40889 21.074 3.32485 21.3061 3.32485 21.5458C3.32485 21.7855 3.40889 22.0176 3.56234 22.2017C3.76684 22.4474 3.87881 22.757 3.87881 23.0766C3.87881 23.3963 3.76684 23.7059 3.56234 23.9516C3.40891 24.1357 3.32489 24.3678 3.32489 24.6075C3.32489 24.8472 3.40891 25.0793 3.56234 25.2634C3.76806 25.5084 3.88017 25.8185 3.87873 26.1384C3.87859 26.458 3.76667 26.7676 3.56234 27.0133C3.40891 27.1975 3.32489 27.4296 3.32489 27.6693C3.32489 27.9089 3.40891 28.141 3.56234 28.3252C3.73722 28.5357 3.84502 28.7938 3.87184 29.0661C3.89867 29.3385 3.84329 29.6126 3.71285 29.8532C3.5824 30.0938 3.38288 30.2898 3.14 30.4159C2.89712 30.542 2.62204 30.5925 2.35021 30.5608ZM6.19876 33.0729C5.67239 33.0722 5.16325 32.8853 4.76144 32.5452C4.35963 32.2052 4.09105 31.734 4.00323 31.215C4.06475 31.1695 4.12472 31.1215 4.1822 31.0701C4.65439 30.6477 4.94927 30.0623 5.00762 29.4315C5.06598 28.8006 4.88348 28.1711 4.49679 27.6693C4.73744 27.3559 4.90071 26.9901 4.97333 26.6017H13.4953V25.4621H4.92327C4.83717 25.1525 4.69239 24.8624 4.49681 24.6075C4.83499 24.1688 5.01839 23.6305 5.01839 23.0766C5.01839 22.5227 4.83499 21.9844 4.49681 21.5457C4.8298 21.1132 5.01287 20.584 5.01832 20.0382C5.37193 20.1112 5.73715 20.1071 6.08902 20.026C6.44089 19.9449 6.77111 19.7889 7.05712 19.5685C7.53577 19.9374 8.13155 20.1211 8.73485 20.0858C9.33816 20.0504 9.90841 19.7984 10.3407 19.3761C10.773 19.7984 11.3433 20.0504 11.9466 20.0858C12.5499 20.1211 13.1457 19.9374 13.6244 19.5685C13.907 19.7859 14.2327 19.9407 14.5798 20.0227C14.9268 20.1046 15.2873 20.1119 15.6374 20.044C15.6441 20.5878 15.827 21.1148 16.1588 21.5457C16.1313 21.5814 16.1065 21.6187 16.0811 21.6557H7.50433V22.7952H15.6551C15.5766 23.4422 15.7577 24.0939 16.1588 24.6075C15.8198 25.0473 15.6364 25.5871 15.6372 26.1423C15.6381 26.6976 15.8232 27.2368 16.1636 27.6755C15.8227 28.1155 15.6376 28.6561 15.6372 29.2127C15.6372 29.2307 15.6391 29.2485 15.6395 29.2665H7.50428V30.406H15.94C16.0037 30.5242 16.0769 30.6371 16.1588 30.7435C15.8686 31.1204 15.6914 31.572 15.6477 32.0456C15.2883 31.9744 14.9177 31.9825 14.5618 32.0695C14.2059 32.1565 13.8733 32.3202 13.5873 32.5492C13.3191 32.3341 13.0095 32.1765 12.6778 32.086C12.3461 31.9956 11.9994 31.9742 11.6591 32.0233C11.3188 32.0725 10.9922 32.1909 10.6997 32.3715C10.4071 32.552 10.1547 32.7908 9.95818 33.0729L6.19876 33.0729ZM19.1994 22.2017C19.4039 22.4474 19.5158 22.7569 19.5158 23.0766C19.5158 23.3963 19.4039 23.7059 19.1994 23.9516C19.046 24.1357 18.9619 24.3678 18.9619 24.6075C18.9619 24.8472 19.046 25.0793 19.1994 25.2634C19.4035 25.5088 19.5155 25.8178 19.5158 26.1369C19.5162 26.4561 19.4049 26.7653 19.2013 27.0111C19.0465 27.198 18.9618 27.4329 18.9618 27.6755C18.9618 27.9182 19.0465 28.1532 19.2013 28.34C19.4049 28.5858 19.5162 28.895 19.5158 29.2142C19.5155 29.5333 19.4035 29.8423 19.1994 30.0877C19.0459 30.2718 18.9619 30.5039 18.9619 30.7436C18.9619 30.9833 19.0459 31.2154 19.1994 31.3995C19.3918 31.6307 19.5027 31.919 19.5147 32.2195C19.5268 32.5201 19.4394 32.8163 19.2661 33.0622C19.1983 33.1583 19.1619 33.273 19.1619 33.3906C19.1619 33.5082 19.1983 33.623 19.2661 33.719C19.4512 33.98 19.5381 34.298 19.5116 34.6169C19.4897 34.8886 19.3871 35.1477 19.2171 35.3608C19.0471 35.574 18.8174 35.7315 18.5573 35.8133C18.2972 35.8951 18.0186 35.8974 17.7572 35.8199C17.4958 35.7425 17.2635 35.5887 17.09 35.3784C17.0365 35.3137 16.9694 35.2616 16.8935 35.2259C16.8175 35.1902 16.7347 35.1716 16.6507 35.1716C16.5668 35.1716 16.4839 35.1902 16.408 35.2259C16.3321 35.2616 16.265 35.3137 16.2115 35.3784C16.0898 35.526 15.9386 35.6465 15.7675 35.732C15.5964 35.8175 15.4093 35.8662 15.2182 35.8749C15.0271 35.8836 14.8364 35.8521 14.6582 35.7825C14.4801 35.7129 14.3185 35.6067 14.1839 35.4708C14.089 35.3752 13.9634 35.3163 13.8292 35.3045C13.6951 35.2928 13.5611 35.3289 13.451 35.4065C13.341 35.4842 13.262 35.5983 13.2281 35.7286C13.1942 35.8589 13.2075 35.9971 13.2657 36.1185C13.3547 36.3038 13.4006 36.5068 13.4 36.7123C13.4001 36.9943 13.3135 37.2695 13.1519 37.5006C12.9903 37.7317 12.7615 37.9075 12.4966 38.0042C12.2318 38.101 11.9435 38.1139 11.671 38.0414C11.3985 37.9688 11.155 37.8142 10.9733 37.5985C10.956 37.5781 10.9374 37.559 10.9175 37.5412C10.7574 37.3252 10.665 37.0666 10.6522 36.7981L10.6508 36.7684C10.6505 36.7561 10.6499 36.7439 10.6488 36.7275C10.6492 36.7194 10.6494 36.7111 10.6495 36.7023C10.6497 36.6736 10.6511 36.6452 10.6529 36.6192L10.6536 36.609C10.6715 36.3663 10.7537 36.1327 10.8919 35.9324C10.9577 35.8371 10.9929 35.7241 10.9928 35.6083C10.9927 35.4925 10.9574 35.3795 10.8914 35.2843C10.7109 35.0248 10.6265 34.7104 10.6529 34.3954C10.6756 34.1165 10.7831 33.8514 10.961 33.6355C11.139 33.4197 11.3787 33.2635 11.6481 33.188C11.9174 33.1125 12.2034 33.1213 12.4676 33.2132C12.7318 33.3051 12.9615 33.4757 13.1259 33.7021C13.1787 33.7748 13.248 33.8339 13.3281 33.8746C13.4081 33.9154 13.4967 33.9366 13.5865 33.9366C13.6764 33.9366 13.7649 33.9154 13.845 33.8746C13.925 33.8339 13.9943 33.7748 14.0472 33.7021C14.1745 33.5275 14.3412 33.3854 14.5337 33.2872C14.7262 33.1891 14.9391 33.1376 15.1552 33.1371C15.4567 33.1363 15.7498 33.2358 15.9883 33.42C16.0868 33.4957 16.2073 33.537 16.3314 33.5379C16.4556 33.5387 16.5766 33.499 16.6761 33.4247C16.7756 33.3505 16.8481 33.2458 16.8826 33.1265C16.9172 33.0073 16.9118 32.88 16.8673 32.7641C16.7803 32.537 16.7554 32.2909 16.7951 32.0511C16.8348 31.8112 16.9377 31.5863 17.0932 31.3994C17.2466 31.2153 17.3307 30.9832 17.3307 30.7435C17.3307 30.5038 17.2466 30.2717 17.0932 30.0876C16.889 29.8422 16.7771 29.5332 16.7767 29.2141C16.7764 28.8949 16.8877 28.5856 17.0913 28.3399C17.2461 28.153 17.3308 27.918 17.3308 27.6754C17.3308 27.4328 17.2461 27.1978 17.0913 27.011C16.8877 26.7652 16.7764 26.456 16.7767 26.1368C16.7771 25.8176 16.889 25.5086 17.0932 25.2633C17.2466 25.0792 17.3307 24.8471 17.3307 24.6074C17.3307 24.3677 17.2466 24.1356 17.0932 23.9515C16.8887 23.7058 16.7767 23.3962 16.7767 23.0765C16.7767 22.7569 16.8887 22.4473 17.0932 22.2016C17.2467 22.0175 17.3307 21.7854 17.3307 21.5457C17.3307 21.306 17.2467 21.0739 17.0932 20.8898C16.9334 20.6981 16.8293 20.4663 16.792 20.2196C16.7548 19.9729 16.7859 19.7207 16.882 19.4904C17.4568 20.2261 18.1764 20.836 18.9963 21.2825C18.9542 21.4408 18.9507 21.6069 18.986 21.7668C19.0213 21.9267 19.0945 22.0759 19.1994 22.2017ZM16.5819 15.3213C16.5819 14.2059 16.9127 13.1156 17.5323 12.1883C18.152 11.2609 19.0327 10.5381 20.0631 10.1113C21.0936 9.68443 22.2275 9.57276 23.3214 9.79035C24.4153 10.0079 25.4201 10.545 26.2088 11.3337C26.9974 12.1224 27.5345 13.1272 27.7521 14.2211C27.9697 15.315 27.858 16.4489 27.4312 17.4793C27.0044 18.5098 26.2816 19.3905 25.3542 20.0102C24.4268 20.6298 23.3365 20.9605 22.2212 20.9605C20.7261 20.9589 19.2927 20.3642 18.2355 19.307C17.1783 18.2498 16.5836 16.8164 16.5819 15.3213Z"/>
</mask>
<path d="M29 15.3213C29.0001 14.2042 28.7242 13.1044 28.1966 12.1197C27.6691 11.135 26.9064 10.2959 25.9763 9.67716C25.0462 9.0584 23.9776 8.67912 22.8656 8.57306C21.7535 8.46699 20.6325 8.63743 19.6022 9.06921V7.44667C19.6022 6.29566 19.145 5.19179 18.3311 4.37789C17.5172 3.564 16.4134 3.10676 15.2623 3.10674H11.0899C10.9555 3.10674 10.8224 3.08027 10.6982 3.02883C10.574 2.97739 10.4612 2.902 10.3662 2.80696C10.2711 2.71191 10.1957 2.59908 10.1443 2.4749C10.0929 2.35072 10.0664 2.21762 10.0664 2.08321V0H7.6344V2.93696C7.6344 3.29402 7.70473 3.64759 7.84137 3.97748C7.97802 4.30736 8.1783 4.6071 8.43078 4.85958C8.68326 5.11206 8.983 5.31234 9.31289 5.44899C9.64277 5.58563 9.99634 5.65596 10.3534 5.65596V10.129C10.3534 10.9603 10.0231 11.7576 9.43529 12.3455C8.84743 12.9333 8.05012 13.2636 7.21877 13.2636H6.92183C6.23002 13.2635 5.55171 13.4551 4.96225 13.8173C4.37279 14.1794 3.89525 14.6979 3.58266 15.315C3.10272 15.0874 2.5629 15.0181 2.04102 15.117C1.51913 15.2159 1.04213 15.478 0.678742 15.8654C0.315356 16.2528 0.0843588 16.7456 0.0190386 17.2727C-0.0462815 17.7999 0.0574494 18.3342 0.315282 18.7986C0.0776351 19.2266 -0.0294532 19.7149 0.00724013 20.2031C0.0439335 20.6913 0.222802 21.158 0.52176 21.5457C0.183584 21.9844 0.000179874 22.5227 0.000179874 23.0766C0.000179874 23.6305 0.183584 24.1688 0.52176 24.6075C0.183584 25.0462 0.000179205 25.5845 0.000179205 26.1384C0.000179205 26.6922 0.183584 27.2305 0.52176 27.6692C0.250379 28.0213 0.0774253 28.4392 0.0205996 28.88C-0.0362262 29.3209 0.025117 29.769 0.198351 30.1784C0.371585 30.5878 0.650489 30.9438 1.00651 31.21C1.36254 31.4762 1.7829 31.643 2.22458 31.6934C2.46187 31.7195 2.70167 31.7119 2.93684 31.6709C3.12097 32.3967 3.54155 33.0405 4.13222 33.5007C4.72289 33.9609 5.45 34.2113 6.19879 34.2124H9.52634C9.52271 34.2436 9.51923 34.2749 9.51676 34.3064C9.47968 34.7553 9.56522 35.2059 9.76425 35.61C9.6243 35.8974 9.54037 36.209 9.51694 36.5278C9.51676 36.5307 9.51599 36.5399 9.51583 36.5427C9.51274 36.5901 9.51056 36.6377 9.51008 36.6844C9.5094 36.6983 9.50889 36.7123 9.50889 36.7265C9.50889 36.7493 9.50992 36.7719 9.51128 36.7944L9.51189 36.8058C9.51257 36.8245 9.51334 36.8431 9.51428 36.86C9.54102 37.3997 9.74288 37.916 10.0893 38.3308C10.1132 38.3595 10.1399 38.3858 10.1689 38.4092C10.498 38.7693 10.9247 39.0258 11.3971 39.1476C11.8694 39.2694 12.367 39.2512 12.8291 39.0952C13.2913 38.9392 13.6981 38.6522 14 38.2691C14.302 37.886 14.4859 37.4233 14.5295 36.9375C14.892 37.0301 15.2705 37.0408 15.6376 36.9688C16.0046 36.8968 16.3511 36.7439 16.6517 36.5212C17.104 36.8572 17.6564 37.0311 18.2197 37.0149C18.7829 36.9986 19.3243 36.7931 19.7566 36.4315C20.1888 36.07 20.4867 35.5734 20.6022 35.0218C20.7177 34.4703 20.6441 33.8959 20.3933 33.3913C20.6026 32.97 20.6893 32.4984 20.6434 32.0302C20.5975 31.562 20.421 31.1162 20.1338 30.7436C20.4728 30.3038 20.6562 29.764 20.6554 29.2087C20.6545 28.6535 20.4694 28.1143 20.129 27.6756C20.4694 27.2369 20.6545 26.6976 20.6554 26.1424C20.6563 25.5871 20.4728 25.0473 20.1338 24.6075C20.4372 24.2147 20.6168 23.7405 20.6499 23.2453C20.6829 22.7501 20.5677 22.2562 20.3191 21.8266C21.914 22.2946 23.6253 22.1587 25.1262 21.4448L27.7838 25.5303L28.739 24.9089L26.1106 20.8683C27.0025 20.2439 27.7308 19.4138 28.2338 18.4482C28.7368 17.4826 28.9996 16.41 29 15.3213ZM2.35021 30.5608C2.10539 30.5322 1.87282 30.4382 1.67703 30.2884C1.48123 30.1387 1.32948 29.939 1.23779 29.7102C1.1461 29.4814 1.11787 29.2321 1.15607 28.9886C1.19427 28.7451 1.2975 28.5164 1.45485 28.3267C1.60845 28.1425 1.69268 27.9102 1.69291 27.6703C1.69314 27.4304 1.60937 27.198 1.45613 27.0134C1.25177 26.7676 1.13982 26.458 1.13968 26.1384C1.13824 25.8185 1.25038 25.5084 1.45613 25.2634C1.60956 25.0793 1.69358 24.8472 1.69358 24.6075C1.69358 24.3678 1.60956 24.1357 1.45613 23.9516C1.25163 23.7059 1.13966 23.3963 1.13966 23.0767C1.13966 22.757 1.25163 22.4474 1.45613 22.2017C1.60958 22.0176 1.69361 21.7855 1.69361 21.5458C1.69361 21.3061 1.60958 21.074 1.45613 20.8899C1.25177 20.6441 1.13983 20.3345 1.13968 20.0149C1.13856 19.7021 1.24575 19.3986 1.44306 19.1558C1.52486 19.0545 1.56948 18.9282 1.56948 18.798C1.56948 18.6677 1.52486 18.5414 1.44306 18.4401C1.21696 18.1572 1.11212 17.7963 1.15147 17.4364C1.19082 17.0764 1.37117 16.7467 1.65305 16.5193C1.93492 16.292 2.29536 16.1856 2.6555 16.2234C3.01564 16.2612 3.34613 16.4401 3.57466 16.721C3.62808 16.7871 3.69559 16.8404 3.77226 16.877C3.84892 16.9136 3.9328 16.9326 4.01775 16.9326C4.1027 16.9326 4.18657 16.9136 4.26324 16.877C4.3399 16.8404 4.40741 16.7871 4.46083 16.721C4.57472 16.5798 4.71557 16.4626 4.87518 16.3763C5.03479 16.29 5.20998 16.2362 5.39054 16.2183C5.5711 16.2003 5.75344 16.2184 5.92693 16.2716C6.10042 16.3247 6.26161 16.4119 6.40111 16.5279C6.58524 16.6814 6.81734 16.7654 7.05703 16.7654C7.29672 16.7655 7.52883 16.6814 7.71298 16.528C7.98136 16.3047 8.32494 16.1924 8.67339 16.2142C9.02183 16.2359 9.3488 16.39 9.58735 16.6449C9.68379 16.7482 9.80043 16.8305 9.93003 16.8868C10.0596 16.9431 10.1994 16.9721 10.3407 16.9721C10.482 16.9721 10.6218 16.9431 10.7514 16.8868C10.881 16.8305 10.9976 16.7482 11.094 16.6449C11.3326 16.39 11.6595 16.2359 12.008 16.2141C12.3564 16.1924 12.7 16.3047 12.9684 16.528C13.1526 16.6814 13.3846 16.7654 13.6243 16.7654C13.864 16.7654 14.0961 16.6814 14.2802 16.528C14.448 16.3872 14.6475 16.2892 14.8615 16.2426C15.0755 16.1959 15.2976 16.2019 15.5088 16.26C15.6164 17.0338 15.858 17.7831 16.2228 18.474C16.1854 18.4963 16.1508 18.523 16.1195 18.5533C15.8779 18.7931 15.5556 18.9343 15.2155 18.9492C14.8754 18.9642 14.542 18.8518 14.2803 18.6341C14.0961 18.4807 13.864 18.3967 13.6243 18.3967C13.3847 18.3967 13.1526 18.4807 12.9684 18.6341C12.7 18.8574 12.3565 18.9696 12.008 18.9479C11.6596 18.9262 11.3326 18.7721 11.094 18.5172C10.9976 18.414 10.881 18.3316 10.7514 18.2753C10.6218 18.219 10.482 18.1899 10.3408 18.1899C10.1995 18.1899 10.0597 18.219 9.93009 18.2753C9.8005 18.3316 9.68386 18.4139 9.58743 18.5172C9.34888 18.7721 9.02192 18.9261 8.67348 18.9479C8.32504 18.9697 7.98147 18.8574 7.71306 18.6342C7.52893 18.4807 7.29683 18.3967 7.05714 18.3966C6.81745 18.3966 6.58534 18.4806 6.40119 18.6341C6.12455 18.8643 5.76834 18.9762 5.40975 18.9456C5.05116 18.915 4.71908 18.7443 4.48548 18.4705C4.38902 18.3579 4.25249 18.2874 4.10486 18.2738C3.95724 18.2603 3.81015 18.3048 3.69482 18.398C3.57949 18.4911 3.50501 18.6255 3.48718 18.7727C3.46935 18.9199 3.50957 19.0682 3.59932 19.1862C3.78679 19.4325 3.8852 19.735 3.87849 20.0445C3.87177 20.3539 3.76032 20.6519 3.56234 20.8899C3.40889 21.074 3.32485 21.3061 3.32485 21.5458C3.32485 21.7855 3.40889 22.0176 3.56234 22.2017C3.76684 22.4474 3.87881 22.757 3.87881 23.0766C3.87881 23.3963 3.76684 23.7059 3.56234 23.9516C3.40891 24.1357 3.32489 24.3678 3.32489 24.6075C3.32489 24.8472 3.40891 25.0793 3.56234 25.2634C3.76806 25.5084 3.88017 25.8185 3.87873 26.1384C3.87859 26.458 3.76667 26.7676 3.56234 27.0133C3.40891 27.1975 3.32489 27.4296 3.32489 27.6693C3.32489 27.9089 3.40891 28.141 3.56234 28.3252C3.73722 28.5357 3.84502 28.7938 3.87184 29.0661C3.89867 29.3385 3.84329 29.6126 3.71285 29.8532C3.5824 30.0938 3.38288 30.2898 3.14 30.4159C2.89712 30.542 2.62204 30.5925 2.35021 30.5608ZM6.19876 33.0729C5.67239 33.0722 5.16325 32.8853 4.76144 32.5452C4.35963 32.2052 4.09105 31.734 4.00323 31.215C4.06475 31.1695 4.12472 31.1215 4.1822 31.0701C4.65439 30.6477 4.94927 30.0623 5.00762 29.4315C5.06598 28.8006 4.88348 28.1711 4.49679 27.6693C4.73744 27.3559 4.90071 26.9901 4.97333 26.6017H13.4953V25.4621H4.92327C4.83717 25.1525 4.69239 24.8624 4.49681 24.6075C4.83499 24.1688 5.01839 23.6305 5.01839 23.0766C5.01839 22.5227 4.83499 21.9844 4.49681 21.5457C4.8298 21.1132 5.01287 20.584 5.01832 20.0382C5.37193 20.1112 5.73715 20.1071 6.08902 20.026C6.44089 19.9449 6.77111 19.7889 7.05712 19.5685C7.53577 19.9374 8.13155 20.1211 8.73485 20.0858C9.33816 20.0504 9.90841 19.7984 10.3407 19.3761C10.773 19.7984 11.3433 20.0504 11.9466 20.0858C12.5499 20.1211 13.1457 19.9374 13.6244 19.5685C13.907 19.7859 14.2327 19.9407 14.5798 20.0227C14.9268 20.1046 15.2873 20.1119 15.6374 20.044C15.6441 20.5878 15.827 21.1148 16.1588 21.5457C16.1313 21.5814 16.1065 21.6187 16.0811 21.6557H7.50433V22.7952H15.6551C15.5766 23.4422 15.7577 24.0939 16.1588 24.6075C15.8198 25.0473 15.6364 25.5871 15.6372 26.1423C15.6381 26.6976 15.8232 27.2368 16.1636 27.6755C15.8227 28.1155 15.6376 28.6561 15.6372 29.2127C15.6372 29.2307 15.6391 29.2485 15.6395 29.2665H7.50428V30.406H15.94C16.0037 30.5242 16.0769 30.6371 16.1588 30.7435C15.8686 31.1204 15.6914 31.572 15.6477 32.0456C15.2883 31.9744 14.9177 31.9825 14.5618 32.0695C14.2059 32.1565 13.8733 32.3202 13.5873 32.5492C13.3191 32.3341 13.0095 32.1765 12.6778 32.086C12.3461 31.9956 11.9994 31.9742 11.6591 32.0233C11.3188 32.0725 10.9922 32.1909 10.6997 32.3715C10.4071 32.552 10.1547 32.7908 9.95818 33.0729L6.19876 33.0729ZM19.1994 22.2017C19.4039 22.4474 19.5158 22.7569 19.5158 23.0766C19.5158 23.3963 19.4039 23.7059 19.1994 23.9516C19.046 24.1357 18.9619 24.3678 18.9619 24.6075C18.9619 24.8472 19.046 25.0793 19.1994 25.2634C19.4035 25.5088 19.5155 25.8178 19.5158 26.1369C19.5162 26.4561 19.4049 26.7653 19.2013 27.0111C19.0465 27.198 18.9618 27.4329 18.9618 27.6755C18.9618 27.9182 19.0465 28.1532 19.2013 28.34C19.4049 28.5858 19.5162 28.895 19.5158 29.2142C19.5155 29.5333 19.4035 29.8423 19.1994 30.0877C19.0459 30.2718 18.9619 30.5039 18.9619 30.7436C18.9619 30.9833 19.0459 31.2154 19.1994 31.3995C19.3918 31.6307 19.5027 31.919 19.5147 32.2195C19.5268 32.5201 19.4394 32.8163 19.2661 33.0622C19.1983 33.1583 19.1619 33.273 19.1619 33.3906C19.1619 33.5082 19.1983 33.623 19.2661 33.719C19.4512 33.98 19.5381 34.298 19.5116 34.6169C19.4897 34.8886 19.3871 35.1477 19.2171 35.3608C19.0471 35.574 18.8174 35.7315 18.5573 35.8133C18.2972 35.8951 18.0186 35.8974 17.7572 35.8199C17.4958 35.7425 17.2635 35.5887 17.09 35.3784C17.0365 35.3137 16.9694 35.2616 16.8935 35.2259C16.8175 35.1902 16.7347 35.1716 16.6507 35.1716C16.5668 35.1716 16.4839 35.1902 16.408 35.2259C16.3321 35.2616 16.265 35.3137 16.2115 35.3784C16.0898 35.526 15.9386 35.6465 15.7675 35.732C15.5964 35.8175 15.4093 35.8662 15.2182 35.8749C15.0271 35.8836 14.8364 35.8521 14.6582 35.7825C14.4801 35.7129 14.3185 35.6067 14.1839 35.4708C14.089 35.3752 13.9634 35.3163 13.8292 35.3045C13.6951 35.2928 13.5611 35.3289 13.451 35.4065C13.341 35.4842 13.262 35.5983 13.2281 35.7286C13.1942 35.8589 13.2075 35.9971 13.2657 36.1185C13.3547 36.3038 13.4006 36.5068 13.4 36.7123C13.4001 36.9943 13.3135 37.2695 13.1519 37.5006C12.9903 37.7317 12.7615 37.9075 12.4966 38.0042C12.2318 38.101 11.9435 38.1139 11.671 38.0414C11.3985 37.9688 11.155 37.8142 10.9733 37.5985C10.956 37.5781 10.9374 37.559 10.9175 37.5412C10.7574 37.3252 10.665 37.0666 10.6522 36.7981L10.6508 36.7684C10.6505 36.7561 10.6499 36.7439 10.6488 36.7275C10.6492 36.7194 10.6494 36.7111 10.6495 36.7023C10.6497 36.6736 10.6511 36.6452 10.6529 36.6192L10.6536 36.609C10.6715 36.3663 10.7537 36.1327 10.8919 35.9324C10.9577 35.8371 10.9929 35.7241 10.9928 35.6083C10.9927 35.4925 10.9574 35.3795 10.8914 35.2843C10.7109 35.0248 10.6265 34.7104 10.6529 34.3954C10.6756 34.1165 10.7831 33.8514 10.961 33.6355C11.139 33.4197 11.3787 33.2635 11.6481 33.188C11.9174 33.1125 12.2034 33.1213 12.4676 33.2132C12.7318 33.3051 12.9615 33.4757 13.1259 33.7021C13.1787 33.7748 13.248 33.8339 13.3281 33.8746C13.4081 33.9154 13.4967 33.9366 13.5865 33.9366C13.6764 33.9366 13.7649 33.9154 13.845 33.8746C13.925 33.8339 13.9943 33.7748 14.0472 33.7021C14.1745 33.5275 14.3412 33.3854 14.5337 33.2872C14.7262 33.1891 14.9391 33.1376 15.1552 33.1371C15.4567 33.1363 15.7498 33.2358 15.9883 33.42C16.0868 33.4957 16.2073 33.537 16.3314 33.5379C16.4556 33.5387 16.5766 33.499 16.6761 33.4247C16.7756 33.3505 16.8481 33.2458 16.8826 33.1265C16.9172 33.0073 16.9118 32.88 16.8673 32.7641C16.7803 32.537 16.7554 32.2909 16.7951 32.0511C16.8348 31.8112 16.9377 31.5863 17.0932 31.3994C17.2466 31.2153 17.3307 30.9832 17.3307 30.7435C17.3307 30.5038 17.2466 30.2717 17.0932 30.0876C16.889 29.8422 16.7771 29.5332 16.7767 29.2141C16.7764 28.8949 16.8877 28.5856 17.0913 28.3399C17.2461 28.153 17.3308 27.918 17.3308 27.6754C17.3308 27.4328 17.2461 27.1978 17.0913 27.011C16.8877 26.7652 16.7764 26.456 16.7767 26.1368C16.7771 25.8176 16.889 25.5086 17.0932 25.2633C17.2466 25.0792 17.3307 24.8471 17.3307 24.6074C17.3307 24.3677 17.2466 24.1356 17.0932 23.9515C16.8887 23.7058 16.7767 23.3962 16.7767 23.0765C16.7767 22.7569 16.8887 22.4473 17.0932 22.2016C17.2467 22.0175 17.3307 21.7854 17.3307 21.5457C17.3307 21.306 17.2467 21.0739 17.0932 20.8898C16.9334 20.6981 16.8293 20.4663 16.792 20.2196C16.7548 19.9729 16.7859 19.7207 16.882 19.4904C17.4568 20.2261 18.1764 20.836 18.9963 21.2825C18.9542 21.4408 18.9507 21.6069 18.986 21.7668C19.0213 21.9267 19.0945 22.0759 19.1994 22.2017ZM16.5819 15.3213C16.5819 14.2059 16.9127 13.1156 17.5323 12.1883C18.152 11.2609 19.0327 10.5381 20.0631 10.1113C21.0936 9.68443 22.2275 9.57276 23.3214 9.79035C24.4153 10.0079 25.4201 10.545 26.2088 11.3337C26.9974 12.1224 27.5345 13.1272 27.7521 14.2211C27.9697 15.315 27.858 16.4489 27.4312 17.4793C27.0044 18.5098 26.2816 19.3905 25.3542 20.0102C24.4268 20.6298 23.3365 20.9605 22.2212 20.9605C20.7261 20.9589 19.2927 20.3642 18.2355 19.307C17.1783 18.2498 16.5836 16.8164 16.5819 15.3213Z" fill="#FDF8E5" stroke="#3A643C" stroke-width="2" mask="url(#path-1-inside-1_26_7338)"/>
<path d="M26.188 15.8203C26.0766 16.6962 25.6793 17.5165 25.0483 18.1475C24.4174 18.7784 23.597 19.1747 22.7212 19.2861V19.1455C23.56 19.0352 24.345 18.6536 24.9497 18.0488C25.5545 17.444 25.937 16.6592 26.0474 15.8203H26.188Z" fill="#FDF8E5" stroke="#3A643C"/>
</svg>
