<svg width="26" height="26" viewBox="0 0 26 26" fill="none" xmlns="http://www.w3.org/2000/svg">
<ellipse cx="13.4524" cy="12.9531" rx="12.5" ry="12" fill="#FDF8E5"/>
<path d="M24.9268 16.374C23.4387 21.5855 18.6391 25.4043 12.9521 25.4043C11.8416 25.4043 10.7652 25.2576 9.74023 24.9844L9.9834 24.9004L12.0557 24.1748L12.417 24.0479L12.3887 23.666L12.3369 22.96L13.2793 22.5566L13.1836 22.2344L14.3711 23.7236V23.7246C14.7161 24.1682 15.3105 24.2549 15.7744 23.9766L15.7861 23.9688L17.5732 22.8291L18.1406 22.4668L18.1348 22.4619L18.167 22.4424L21.457 20.3701L21.4678 20.3623C21.8684 20.095 22.0958 19.563 21.8564 19.0508H21.8574L21.2246 17.5693L22.0781 17.04L22.6289 17.5049L22.9199 17.751L23.2344 17.5352L24.9268 16.374ZM6.03516 23.0566L9.10059 23.5439L9.33105 24.541L9.41113 24.8916C8.01627 24.4781 6.72397 23.8267 5.58008 22.9844L6.03516 23.0566ZM12.9521 0.5C19.2195 0.5 24.4095 5.13829 25.2764 11.167L24.709 10.915L24.2129 10.6943L24.0342 11.208L23.1768 13.665L21.9824 13.5684L21.7676 13.5498L22.04 12.3652L22.041 12.3613C22.1397 11.9171 21.9417 11.4867 21.6104 11.25L21.5928 11.2383L16.5156 7.92285H16.5146C16.2779 7.76313 16.0053 7.7613 15.8301 7.7832C15.6366 7.80745 15.444 7.87383 15.2949 7.95898L15.2939 7.95996L13.1982 9.16211C13.6541 8.42565 13.9189 7.55903 13.9189 6.63184C13.9189 3.97252 11.7521 1.80577 9.09277 1.80566C6.43339 1.80566 4.2666 3.97246 4.2666 6.63184C4.26672 9.29112 6.43347 11.458 9.09277 11.458C9.15657 11.458 9.22 11.4546 9.2832 11.4521L7.1084 12.6992C6.77999 12.887 6.5274 13.271 6.57422 13.7246V13.7256L7.14453 19.709V19.7168C7.1939 20.1611 7.49739 20.4942 7.89844 20.6279L7.92188 20.6357H7.92285C7.92347 20.6359 7.92473 20.6364 7.92578 20.6367L7.97949 20.6514C8.01747 20.662 8.07367 20.6775 8.14453 20.6973C8.28646 20.7369 8.48978 20.7945 8.7334 20.8623C8.94649 20.9216 9.19103 20.9888 9.45312 21.0615L8.97266 21.8418L6.4668 21.0742L5.94141 20.9141L5.83105 21.4521L5.62402 22.4629L5.52441 22.9443C2.47608 20.6738 0.5 17.0425 0.5 12.9521C0.500126 6.07876 6.07876 0.500126 12.9521 0.5ZM10.9609 22.0469L10.9277 22.3193L10.8721 22.7598L10.1895 22.8418L10.5479 22.0068L10.9609 22.0469ZM14.6611 14.4316C15.5414 13.9706 16.1698 13.9249 16.6064 14.0449C17.0408 14.1644 17.3781 14.4733 17.627 14.9121C17.878 15.3548 18.0198 15.9014 18.0615 16.415C18.1044 16.9431 18.0357 17.3578 17.9414 17.5547L17.9404 17.5566C17.6264 18.2196 17.2928 18.4845 17.0264 18.585C16.7568 18.6865 16.4562 18.6578 16.1348 18.5303C15.8117 18.4021 15.5103 18.1902 15.2812 17.999C15.1987 17.9301 15.1301 17.8637 15.0742 17.8105C15.1429 17.8205 15.1901 17.8329 15.2793 17.8496C15.317 17.8567 15.3826 17.868 15.4521 17.8691C15.5073 17.8701 15.654 17.8665 15.7969 17.7686L15.7979 17.7695C15.8011 17.7673 15.8034 17.7639 15.8066 17.7617C15.8098 17.7595 15.8143 17.7582 15.8174 17.7559L15.8164 17.7549C16.4096 17.3373 16.4657 16.6034 16.2607 16.082C16.0512 15.549 15.509 15.0745 14.7607 15.1963C14.756 15.1787 14.7492 15.1566 14.7432 15.1289C14.7246 15.0433 14.6892 14.8273 14.626 14.6592C14.6057 14.6054 14.5787 14.5485 14.5459 14.4912L14.6611 14.4316ZM23.2764 15.249L22.7969 15.7705L22.3896 15.5459L22.1699 15.4238L22.3926 15.0488L23.2764 15.249ZM25.4043 12.9521C25.4043 13.8398 25.3106 14.7058 25.1338 15.541L24.4697 14.7754L24.4688 14.7744L25.4033 12.9502L25.4043 12.9521ZM9.82617 18.2334L9.82227 18.2031L9.7959 17.9873L10.2822 18.5898L9.90332 18.4814L9.8877 18.4775L9.85547 18.4658C9.84886 18.4532 9.82617 18.3994 9.82617 18.2627V18.2334Z" fill="#FDF8E5" stroke="#3A643C"/>
</svg>
