<svg width="26" height="28" viewBox="0 0 26 28" fill="none" xmlns="http://www.w3.org/2000/svg">
<path d="M5.12476 8.05273C5.10724 7.65666 5.16888 7.29988 5.29956 6.9873L5.30054 6.98633C5.64348 6.16279 6.44364 5.67783 7.14136 5.3916C7.15756 5.64558 7.13375 5.94867 7.01538 6.27734C6.76679 6.96718 6.1613 7.63065 5.12476 8.23047V8.05273Z" fill="#FDF8E5" stroke="#3A643C"/>
<path d="M10.7175 8.76953C10.8484 8.76964 11.1076 8.87229 11.4763 9.15527C11.5335 9.19916 11.5895 9.24831 11.6472 9.29688C11.1815 9.32915 10.7337 9.40004 10.3054 9.5127C10.4998 8.79335 10.7281 8.76077 10.6833 8.77344L10.6843 8.77246C10.688 8.77141 10.6983 8.76953 10.7175 8.76953Z" fill="#FDF8E5" stroke="#3A643C"/>
<path d="M15.1025 3.48438C16.0638 3.48439 16.9047 4.15988 17.1279 5.08105L17.164 5.26855C17.2033 5.53618 17.3615 5.77348 17.5966 5.91211V5.91309C17.8309 6.05145 18.1162 6.0761 18.371 5.97949L18.3701 5.97852L19.6855 5.4834C20.5868 5.14355 21.4583 5.01256 22.2773 5.08008C22.4215 5.09187 22.5661 5.10776 22.7128 5.12793H22.7158C23.0954 5.17795 23.4262 5.302 23.706 5.48926C24.2688 5.86619 24.6308 6.55702 24.6308 7.36328V10.9082C24.6309 11.133 24.7147 11.3497 24.8671 11.5156V11.5166C25.2138 11.8934 25.4052 12.3815 25.4052 12.8936C25.4052 13.325 25.2712 13.7356 25.0175 14.085C24.8393 14.3302 24.7965 14.6495 24.9052 14.9336C24.9886 15.1525 25.0302 15.3759 25.0302 15.5986C25.0302 15.867 24.9725 16.1284 24.8583 16.377V16.3779C24.7423 16.6321 24.7498 16.9284 24.8847 17.1777V17.1787C25.0267 17.4412 25.0966 17.7141 25.0966 17.9932C25.0966 18.6199 24.7564 19.1971 24.2109 19.499H24.2099C23.9253 19.6571 23.747 19.9576 23.747 20.2852V22.0723C23.747 22.2816 23.5774 22.4482 23.3749 22.4482C23.1666 22.4482 22.998 22.2788 22.998 22.0723V20.2812C22.998 19.955 22.821 19.6546 22.537 19.4961H22.5361C21.9909 19.1921 21.6523 18.6159 21.6523 17.9932C21.6523 17.8218 21.6795 17.6433 21.7372 17.4639C21.8236 17.1958 21.7804 16.9029 21.6191 16.6729H21.6181C21.3951 16.3543 21.2783 15.9833 21.2783 15.5986C21.2783 15.2737 21.3654 14.9485 21.5322 14.6602C21.6647 14.4309 21.6891 14.1568 21.6015 13.9102L21.5576 13.8057C21.4128 13.5182 21.3398 13.2128 21.3398 12.8936C21.3398 12.4718 21.4658 12.0698 21.706 11.7295L21.707 11.7305C21.8896 11.4728 21.9213 11.1414 21.7997 10.8574L21.7382 10.7393L21.6611 10.6318C21.4638 10.3974 21.155 10.2731 20.8388 10.3223C18.5467 10.6699 16.8347 10.5197 15.5517 9.93164H15.5527C15.1465 9.7452 14.7258 9.6038 14.2997 9.50488C14.0152 9.13556 13.4947 8.50364 12.8671 7.96973C12.5053 7.66185 12.0898 7.36996 11.6484 7.18359C11.2614 7.02024 10.8272 6.92752 10.3847 7.00293L10.1943 7.0459C9.58415 7.21839 9.14596 7.66516 8.85052 8.28223C8.58482 8.83731 8.42078 9.55681 8.3349 10.4209C8.30368 10.4426 8.27145 10.4623 8.24115 10.4844C7.84003 10.7762 7.75223 11.3374 8.04291 11.7383L8.04388 11.7402C8.22658 11.9903 8.51432 12.1186 8.80267 12.1084C9.11486 12.8544 9.1185 13.4876 8.99408 14.0049C8.86434 14.5441 8.5889 14.9864 8.32123 15.3105L8.20697 15.4424C7.94872 15.7282 7.90186 16.1465 8.08881 16.4824V16.4834C8.27324 16.8131 8.6766 17.7086 8.41595 18.8262C8.20074 19.7481 7.55983 20.356 7.25677 20.5996L7.09467 20.7197C6.72091 20.9538 6.57179 21.4255 6.74408 21.832V21.8311C6.91653 22.2388 7.36152 22.4612 7.79291 22.3516V22.3525C8.70963 22.12 9.57663 22.1076 10.2734 22.2686C10.9758 22.4308 11.4581 22.7551 11.6962 23.1533C11.8325 23.3816 11.911 23.6717 11.9111 24.0234C11.8963 24.739 11.8865 25.4635 11.8818 26.1963C11.8799 26.5003 11.8808 26.8027 11.8808 27.1035H10.5849L10.5839 25.6855C10.5839 25.5532 10.584 25.4145 10.5761 25.292C10.5684 25.1724 10.5515 25.0263 10.498 24.8867C10.439 24.7333 10.3329 24.581 10.1562 24.4785C9.99223 24.3835 9.81486 24.3594 9.66107 24.3594H9.64349L9.62885 24.3604C9.62885 24.3603 8.93527 24.3993 8.08002 24.2168C7.21207 24.0315 6.25175 23.6345 5.63763 22.8184V22.8174C4.75287 21.6414 4.65432 19.7123 5.61713 16.9082C5.67902 16.831 5.73121 16.7441 5.76556 16.6475V16.6465C5.88211 16.3148 5.79495 15.9446 5.54095 15.7002C5.08251 15.2594 4.50896 14.3198 4.96478 12.3789C5.07176 11.926 5.12494 11.4588 5.12494 10.9902V10.249C6.95769 9.40094 8.21201 8.28217 8.71381 6.86523C8.97428 6.12997 8.9747 5.45899 8.89545 4.93652C9.12773 4.91155 9.35594 4.89769 9.59271 4.88477C10.1492 4.85404 10.5454 4.91014 11.1005 4.98926H11.1015L11.3437 5.02344H11.3456C11.4691 5.04041 11.5927 5.08062 11.7079 5.1416L11.8203 5.20898C12.0461 5.36455 12.3298 5.40697 12.5898 5.32812C12.8521 5.24882 13.063 5.05514 13.164 4.80176C13.4829 4.00005 14.2426 3.48438 15.1025 3.48438Z" fill="#FDF8E5" stroke="#3A643C"/>
<mask id="path-4-inside-1_26_7360" fill="white">
<path d="M4.14182 3.9179L1.95472 2.26602C1.77968 2.13347 1.5292 2.16827 1.39639 2.34384C1.26384 2.51942 1.29864 2.76936 1.47421 2.90191L3.66131 4.55379C3.7333 4.60824 3.8175 4.63427 3.90117 4.63427C4.02176 4.63427 4.14102 4.57955 4.21938 4.47596C4.35219 4.30039 4.31739 4.05044 4.14182 3.9179Z"/>
</mask>
<path d="M4.14182 3.9179L1.95472 2.26602C1.77968 2.13347 1.5292 2.16827 1.39639 2.34384C1.26384 2.51942 1.29864 2.76936 1.47421 2.90191L3.66131 4.55379C3.7333 4.60824 3.8175 4.63427 3.90117 4.63427C4.02176 4.63427 4.14102 4.57955 4.21938 4.47596C4.35219 4.30039 4.31739 4.05044 4.14182 3.9179Z" fill="#FDF8E5"/>
<path d="M4.14182 3.9179L3.53912 4.71587L3.53931 4.71601L4.14182 3.9179ZM1.95472 2.26602L1.35105 3.06325L1.35202 3.06399L1.95472 2.26602ZM1.39639 2.34384L0.598856 1.74057L0.598275 1.74133L1.39639 2.34384ZM1.47421 2.90191L2.07691 2.10393L2.07672 2.10379L1.47421 2.90191ZM3.66131 4.55379L4.26461 3.75626L4.26401 3.75581L3.66131 4.55379ZM4.21938 4.47596L3.42185 3.87268L3.42184 3.87269L4.21938 4.47596ZM4.14182 3.9179L4.74451 3.11992L2.55741 1.46805L1.95472 2.26602L1.35202 3.06399L3.53912 4.71587L4.14182 3.9179ZM1.95472 2.26602L2.55839 1.46878C1.94168 1.00181 1.06404 1.12559 0.598856 1.74057L1.39639 2.34384L2.19392 2.94712C1.99435 3.21095 1.61767 3.26514 1.35105 3.06325L1.95472 2.26602ZM1.39639 2.34384L0.598275 1.74133C0.133279 2.35729 0.254945 3.23442 0.871706 3.70002L1.47421 2.90191L2.07672 2.10379C2.34234 2.30431 2.39441 2.68154 2.1945 2.94635L1.39639 2.34384ZM1.47421 2.90191L0.87152 3.69988L3.05862 5.35176L3.66131 4.55379L4.26401 3.75581L2.07691 2.10393L1.47421 2.90191ZM3.66131 4.55379L3.05802 5.35131C3.31063 5.54239 3.60858 5.63427 3.90117 5.63427V4.63427V3.63427C4.02641 3.63427 4.15597 3.67408 4.26461 3.75627L3.66131 4.55379ZM3.90117 4.63427V5.63427C4.32238 5.63427 4.74202 5.44266 5.01692 5.07923L4.21938 4.47596L3.42184 3.87269C3.54003 3.71645 3.72113 3.63427 3.90117 3.63427V4.63427ZM4.21938 4.47596L5.01691 5.07924C5.483 4.46306 5.36115 3.58543 4.74433 3.11978L4.14182 3.9179L3.53931 4.71601C3.27363 4.51545 3.22137 4.13771 3.42185 3.87268L4.21938 4.47596Z" fill="#3A643C" mask="url(#path-4-inside-1_26_7360)"/>
<mask id="path-6-inside-2_26_7360" fill="white">
<path d="M15.1521 13.4552L12.965 11.8033C12.7899 11.6705 12.5392 11.7053 12.4066 11.8811C12.2741 12.0567 12.3089 12.3067 12.4845 12.4392L14.6716 14.0911C14.7436 14.1455 14.8278 14.1716 14.9114 14.1716C15.032 14.1716 15.1513 14.1169 15.2296 14.0133C15.3624 13.8374 15.3276 13.5877 15.1521 13.4552Z"/>
</mask>
<path d="M15.1521 13.4552L12.965 11.8033C12.7899 11.6705 12.5392 11.7053 12.4066 11.8811C12.2741 12.0567 12.3089 12.3067 12.4845 12.4392L14.6716 14.0911C14.7436 14.1455 14.8278 14.1716 14.9114 14.1716C15.032 14.1716 15.1513 14.1169 15.2296 14.0133C15.3624 13.8374 15.3276 13.5877 15.1521 13.4552Z" fill="#FDF8E5"/>
<path d="M15.1521 13.4552L14.5494 14.2532L14.5496 14.2533L15.1521 13.4552ZM12.965 11.8033L12.3605 12.6L12.3623 12.6013L12.965 11.8033ZM12.4066 11.8811L13.2048 12.4837L13.2052 12.4831L12.4066 11.8811ZM12.4845 12.4392L13.0872 11.6412L13.087 11.6411L12.4845 12.4392ZM14.6716 14.0911L15.2749 13.2936L15.2743 13.2931L14.6716 14.0911ZM15.2296 14.0133L16.0272 14.6165L16.0276 14.616L15.2296 14.0133ZM15.1521 13.4552L15.7548 12.6572L13.5677 11.0053L12.965 11.8033L12.3623 12.6013L14.5494 14.2532L15.1521 13.4552ZM12.965 11.8033L13.5694 11.0067C12.9528 10.5388 12.0734 10.662 11.6081 11.2792L12.4066 11.8811L13.2052 12.4831C13.005 12.7486 12.627 12.8022 12.3605 12.6L12.965 11.8033ZM12.4066 11.8811L11.6085 11.2786C11.1435 11.8946 11.2652 12.7717 11.882 13.2373L12.4845 12.4392L13.087 11.6411C13.3526 11.8416 13.4047 12.2188 13.2048 12.4837L12.4066 11.8811ZM12.4845 12.4392L11.8818 13.2372L14.0689 14.8891L14.6716 14.0911L15.2743 13.2931L13.0872 11.6412L12.4845 12.4392ZM14.6716 14.0911L14.0683 14.8886C14.3209 15.0797 14.6188 15.1716 14.9114 15.1716V14.1716V13.1716C15.0367 13.1716 15.1662 13.2114 15.2749 13.2936L14.6716 14.0911ZM14.9114 14.1716V15.1716C15.3326 15.1716 15.7523 14.98 16.0272 14.6165L15.2296 14.0133L14.4321 13.41C14.5503 13.2538 14.7314 13.1716 14.9114 13.1716V14.1716ZM15.2296 14.0133L16.0276 14.616C16.4928 14 16.3717 13.1229 15.7546 12.6571L15.1521 13.4552L14.5496 14.2533C14.2836 14.0526 14.232 13.6749 14.4317 13.4106L15.2296 14.0133Z" fill="#3A643C" mask="url(#path-6-inside-2_26_7360)"/>
<mask id="path-8-inside-3_26_7360" fill="white">
<path d="M11.774 13.2366C11.6693 13.0427 11.4274 12.9707 11.234 13.0754C11.0404 13.1798 10.9681 13.4215 11.0728 13.6151L12.3743 16.0269C12.4463 16.1603 12.5836 16.2362 12.7252 16.2362C12.7892 16.2362 12.854 16.2208 12.9143 16.1882C13.1079 16.0838 13.1802 15.8421 13.0755 15.6484L11.774 13.2366Z"/>
</mask>
<path d="M11.774 13.2366C11.6693 13.0427 11.4274 12.9707 11.234 13.0754C11.0404 13.1798 10.9681 13.4215 11.0728 13.6151L12.3743 16.0269C12.4463 16.1603 12.5836 16.2362 12.7252 16.2362C12.7892 16.2362 12.854 16.2208 12.9143 16.1882C13.1079 16.0838 13.1802 15.8421 13.0755 15.6484L11.774 13.2366Z" fill="#FDF8E5"/>
<path d="M11.774 13.2366L12.654 12.7617L12.654 12.7616L11.774 13.2366ZM11.234 13.0754L11.7085 13.9556L11.71 13.9548L11.234 13.0754ZM11.0728 13.6151L11.9528 13.1402L11.9525 13.1396L11.0728 13.6151ZM12.3743 16.0269L11.4943 16.5018L11.4943 16.502L12.3743 16.0269ZM12.9143 16.1882L12.4398 15.3079L12.4379 15.3089L12.9143 16.1882ZM13.0755 15.6484L12.1955 16.1233L12.1958 16.1239L13.0755 15.6484ZM11.774 13.2366L12.654 12.7616C12.2868 12.0812 11.4374 11.8282 10.758 12.1959L11.234 13.0754L11.71 13.9548C11.4173 14.1132 11.0519 14.0042 10.894 13.7116L11.774 13.2366ZM11.234 13.0754L10.7595 12.1951C10.0791 12.5619 9.82568 13.4109 10.193 14.0906L11.0728 13.6151L11.9525 13.1396C12.1105 13.4321 12.0016 13.7976 11.7085 13.9556L11.234 13.0754ZM11.0728 13.6151L10.1927 14.09L11.4943 16.5018L12.3743 16.0269L13.2543 15.552L11.9528 13.1402L11.0728 13.6151ZM12.3743 16.0269L11.4943 16.502C11.7475 16.971 12.2303 17.2362 12.7252 17.2362V16.2362V15.2362C12.9369 15.2362 13.145 15.3495 13.2543 15.5519L12.3743 16.0269ZM12.7252 16.2362V17.2362C12.951 17.2362 13.1802 17.1815 13.3907 17.0674L12.9143 16.1882L12.4379 15.3089C12.5278 15.2602 12.6274 15.2362 12.7252 15.2362V16.2362ZM12.9143 16.1882L13.3888 17.0684C14.0691 16.7016 14.3226 15.8527 13.9553 15.173L13.0755 15.6484L12.1958 16.1239C12.0377 15.8315 12.1467 15.4659 12.4398 15.3079L12.9143 16.1882ZM13.0755 15.6484L13.9556 15.1735L12.654 12.7617L11.774 13.2366L10.894 13.7115L12.1955 16.1233L13.0755 15.6484Z" fill="#3A643C" mask="url(#path-8-inside-3_26_7360)"/>
<mask id="path-10-inside-4_26_7360" fill="white">
<path d="M2.91898 7.00999L0.287233 7.77576C0.0758013 7.83712 -0.0455862 8.05838 0.0160372 8.26955C0.0665047 8.44379 0.225876 8.55695 0.398262 8.55695C0.435183 8.55695 0.472635 8.55163 0.509822 8.54101L3.14157 7.77523C3.353 7.71387 3.47439 7.49262 3.41276 7.28145C3.35141 7.06975 3.12988 6.94889 2.91898 7.00999Z"/>
</mask>
<path d="M2.91898 7.00999L0.287233 7.77576C0.0758013 7.83712 -0.0455862 8.05838 0.0160372 8.26955C0.0665047 8.44379 0.225876 8.55695 0.398262 8.55695C0.435183 8.55695 0.472635 8.55163 0.509822 8.54101L3.14157 7.77523C3.353 7.71387 3.47439 7.49262 3.41276 7.28145C3.35141 7.06975 3.12988 6.94889 2.91898 7.00999Z" fill="#FDF8E5"/>
<path d="M2.91898 7.00999L2.64074 6.04947L2.63959 6.04981L2.91898 7.00999ZM0.287233 7.77576L0.565936 8.73614L0.566623 8.73594L0.287233 7.77576ZM0.0160372 8.26955L0.976562 7.99135L0.975997 7.98941L0.0160372 8.26955ZM0.509822 8.54101L0.784546 9.50254L0.789211 9.50119L0.509822 8.54101ZM3.14157 7.77523L2.86286 6.81485L2.86218 6.81505L3.14157 7.77523ZM3.41276 7.28145L2.45229 7.55983L2.4528 7.56159L3.41276 7.28145ZM2.91898 7.00999L2.63959 6.04981L0.00784347 6.81559L0.287233 7.77576L0.566623 8.73594L3.19837 7.97016L2.91898 7.00999ZM0.287233 7.77576L0.00853088 6.81539C-0.734055 7.03089 -1.16037 7.80798 -0.943922 8.54969L0.0160372 8.26955L0.975997 7.98941C1.0692 8.30878 0.885657 8.64336 0.565936 8.73614L0.287233 7.77576ZM0.0160372 8.26955L-0.944486 8.54775C-0.766654 9.16174 -0.206456 9.55695 0.398262 9.55695V8.55695V7.55695C0.658207 7.55695 0.899663 7.72585 0.97656 7.99135L0.0160372 8.26955ZM0.398262 8.55695V9.55695C0.531438 9.55695 0.661283 9.53775 0.784543 9.50253L0.509822 8.54101L0.2351 7.57949C0.283987 7.56552 0.338927 7.55695 0.398262 7.55695V8.55695ZM0.509822 8.54101L0.789211 9.50119L3.42096 8.73541L3.14157 7.77523L2.86218 6.81505L0.230432 7.58083L0.509822 8.54101ZM3.14157 7.77523L3.42027 8.73561C4.16285 8.52011 4.58917 7.74302 4.37272 7.00131L3.41276 7.28145L2.4528 7.56159C2.3596 7.24221 2.54314 6.90764 2.86286 6.81485L3.14157 7.77523ZM3.41276 7.28145L4.37323 7.00307C4.15725 6.25789 3.37897 5.83563 2.64074 6.04947L2.91898 7.00999L3.19721 7.9705C2.88079 8.06216 2.54556 7.88161 2.45229 7.55983L3.41276 7.28145Z" fill="#3A643C" mask="url(#path-10-inside-4_26_7360)"/>
<mask id="path-12-inside-5_26_7360" fill="white">
<path d="M5.90027 3.16656C5.92418 3.36923 6.09604 3.5185 6.29525 3.5185C6.31092 3.5185 6.32659 3.51771 6.34253 3.51585C6.56087 3.49008 6.71732 3.2922 6.69129 3.07359L6.37068 0.351803C6.34492 0.133199 6.14677 -0.0229846 5.92843 0.00278033C5.71009 0.0285453 5.55364 0.226431 5.57967 0.445035L5.90027 3.16656Z"/>
</mask>
<path d="M5.90027 3.16656C5.92418 3.36923 6.09604 3.5185 6.29525 3.5185C6.31092 3.5185 6.32659 3.51771 6.34253 3.51585C6.56087 3.49008 6.71732 3.2922 6.69129 3.07359L6.37068 0.351803C6.34492 0.133199 6.14677 -0.0229846 5.92843 0.00278033C5.71009 0.0285453 5.55364 0.226431 5.57967 0.445035L5.90027 3.16656Z" fill="#FDF8E5"/>
<path d="M5.90027 3.16656L4.90714 3.28355L4.90716 3.2837L5.90027 3.16656ZM6.34253 3.51585L6.45841 4.50911L6.45972 4.50896L6.34253 3.51585ZM6.69129 3.07359L5.69815 3.19057L5.6983 3.19183L6.69129 3.07359ZM6.37068 0.351803L7.36382 0.234821L7.36381 0.234751L6.37068 0.351803ZM5.57967 0.445035L6.57281 0.328041L6.57266 0.326793L5.57967 0.445035ZM5.90027 3.16656L4.90716 3.2837C4.99101 3.99452 5.59379 4.5185 6.29525 4.5185V3.5185V2.5185C6.59828 2.5185 6.85736 2.74393 6.89339 3.04942L5.90027 3.16656ZM6.29525 3.5185V4.5185C6.34515 4.5185 6.39979 4.51595 6.45841 4.50911L6.34253 3.51585L6.22665 2.52258C6.25339 2.51946 6.27669 2.5185 6.29525 2.5185V3.5185ZM6.34253 3.51585L6.45972 4.50896C7.2256 4.41858 7.77581 3.72412 7.68427 2.95535L6.69129 3.07359L5.6983 3.19183C5.65882 2.86027 5.89614 2.56159 6.22534 2.52274L6.34253 3.51585ZM6.69129 3.07359L7.68442 2.95661L7.36382 0.234821L6.37068 0.351803L5.37755 0.468785L5.69815 3.19057L6.69129 3.07359ZM6.37068 0.351803L7.36381 0.234751C7.27338 -0.532548 6.57796 -1.08081 5.81124 -0.990329L5.92843 0.00278033L6.04562 0.99589C5.71558 1.03484 5.41646 0.798946 5.37756 0.468854L6.37068 0.351803ZM5.92843 0.00278033L5.81124 -0.990329C5.04536 -0.899952 4.49515 -0.205496 4.58669 0.563276L5.57967 0.445035L6.57266 0.326793C6.61214 0.658358 6.37482 0.957042 6.04562 0.99589L5.92843 0.00278033ZM5.57967 0.445035L4.58654 0.562028L4.90714 3.28355L5.90027 3.16656L6.89341 3.04957L6.57281 0.328042L5.57967 0.445035Z" fill="#3A643C" mask="url(#path-12-inside-5_26_7360)"/>
</svg>
