<svg width="26" height="31" viewBox="0 0 26 31" fill="none" xmlns="http://www.w3.org/2000/svg">
<path d="M11.4268 27.959L11.1758 27.8145C10.6573 27.5174 10.416 27.0943 10.416 26.6982C10.4162 26.3577 10.5951 25.9975 10.9775 25.7119L11.5146 25.3115L10.9775 24.9111C10.5951 24.6256 10.4162 24.2655 10.416 23.9248C10.416 23.7592 10.456 23.5951 10.5381 23.4375L10.918 22.707H5.62305C4.81911 22.707 4.0655 22.3945 3.49707 21.8262C2.92888 21.2578 2.61723 20.5044 2.61719 19.7002C2.61719 18.0432 3.96601 16.6943 5.62305 16.6943H12.7188C12.9664 16.6943 13.1997 16.5927 13.3691 16.4121C13.5182 16.2532 13.6024 16.0496 13.6104 15.8359L13.6094 15.7441L13.5986 15.6533C13.5237 15.212 13.1208 14.9102 12.6973 14.9102H3.50586C2.69208 14.9102 1.93279 14.5919 1.3623 14.0117C0.792395 13.4321 0.486369 12.6677 0.5 11.8535C0.526859 10.2334 1.89413 8.8985 3.55957 8.89844H10.6016C10.8496 8.89844 11.0836 8.79691 11.2529 8.61621C11.4015 8.45759 11.4853 8.25377 11.4932 8.04004L11.4922 7.94727C11.46 7.45428 11.0361 7.11536 10.5811 7.11523H5.85449C4.29997 7.11518 3.03442 5.84935 3.03418 4.29492V0.5H5.14941V3.51562C5.14941 4.33482 5.81463 5.00085 6.63379 5.00098H10.6016C11.4059 5.00098 12.1602 5.3125 12.7285 5.88086C13.2966 6.4484 13.6084 7.20213 13.6084 8.00684C13.6083 9.6637 12.259 11.0127 10.6016 11.0127H3.50586C3.28912 11.0127 3.0833 11.0901 2.92188 11.2305L2.85547 11.2949C2.7068 11.4537 2.62307 11.6573 2.61523 11.8711L2.61621 11.9639C2.64849 12.4566 3.07215 12.7957 3.52734 12.7959H12.7188C13.5321 12.7959 14.2917 13.1143 14.8623 13.6943C15.4325 14.274 15.7379 15.0391 15.7246 15.8535C15.6972 17.4739 14.3302 18.8086 12.665 18.8086H5.62305C5.37508 18.8086 5.14104 18.9099 4.97168 19.0908C4.82311 19.2494 4.74023 19.4534 4.73242 19.667L4.7334 19.7598C4.76572 20.2527 5.18948 20.5917 5.64453 20.5918H13.4561C13.7468 20.5918 14.0149 20.7059 14.2168 20.915C14.4182 21.1238 14.5229 21.396 14.5127 21.6875C14.5029 21.96 14.3836 22.2189 14.1797 22.4092L13.8076 22.7559L14.1611 23.1221C14.4016 23.3709 14.5127 23.65 14.5127 23.9248C14.5126 24.2656 14.3332 24.6257 13.9512 24.9111L13.415 25.3115L13.9512 25.7119C14.3331 25.9972 14.5125 26.3575 14.5127 26.6982C14.5127 27.0833 14.2803 27.4991 13.7842 27.7959L13.541 27.9414V29.5518C13.541 29.7851 13.3505 29.9766 13.1172 29.9766H11.8516C11.6182 29.9766 11.4268 29.7851 11.4268 29.5518V27.959Z" fill="#FDF8E5" stroke="#3A643C"/>
<mask id="path-2-inside-1_26_7393" fill="white">
<path d="M7.40855 24.3976L8.35972 24.6806C8.3827 24.6875 8.40598 24.6907 8.42877 24.6907C8.53302 24.6907 8.62929 24.6228 8.66055 24.5178C8.69864 24.3898 8.62572 24.255 8.49771 24.2169L7.54654 23.934C7.41847 23.8958 7.2838 23.9688 7.24571 24.0968C7.20761 24.2248 7.28048 24.3595 7.40855 24.3976Z"/>
</mask>
<path d="M7.40855 24.3976L8.35972 24.6806C8.3827 24.6875 8.40598 24.6907 8.42877 24.6907C8.53302 24.6907 8.62929 24.6228 8.66055 24.5178C8.69864 24.3898 8.62572 24.255 8.49771 24.2169L7.54654 23.934C7.41847 23.8958 7.2838 23.9688 7.24571 24.0968C7.20761 24.2248 7.28048 24.3595 7.40855 24.3976Z" fill="#FDF8E5"/>
<path d="M7.40855 24.3976L7.69372 23.4392L7.69365 23.4391L7.40855 24.3976ZM8.35972 24.6806L8.07455 25.6391L8.07469 25.6391L8.35972 24.6806ZM8.66055 24.5178L9.61895 24.8032L9.61901 24.803L8.66055 24.5178ZM8.49771 24.2169L8.78294 23.2585L8.78287 23.2585L8.49771 24.2169ZM7.54654 23.934L7.26102 24.8923L7.26137 24.8924L7.54654 23.934ZM7.40855 24.3976L7.12338 25.3561L8.07455 25.6391L8.35972 24.6806L8.64489 23.7221L7.69372 23.4392L7.40855 24.3976ZM8.35972 24.6806L8.07469 25.6391C8.19121 25.6738 8.31054 25.6907 8.42877 25.6907V24.6907V23.6907C8.50141 23.6907 8.57419 23.7011 8.64475 23.7221L8.35972 24.6806ZM8.42877 24.6907V25.6907C8.96325 25.6907 9.45801 25.3436 9.61895 24.8032L8.66055 24.5178L7.70215 24.2324C7.80057 23.9019 8.10279 23.6907 8.42877 23.6907V24.6907ZM8.66055 24.5178L9.61901 24.803C9.81463 24.1457 9.44031 23.4541 8.78294 23.2585L8.49771 24.2169L8.21248 25.1754C7.81113 25.056 7.58266 24.6339 7.70209 24.2326L8.66055 24.5178ZM8.49771 24.2169L8.78287 23.2585L7.8317 22.9755L7.54654 23.934L7.26137 24.8924L8.21254 25.1754L8.49771 24.2169ZM7.54654 23.934L7.83206 22.9756C7.17403 22.7795 6.48274 23.1546 6.28725 23.8116L7.24571 24.0968L8.20417 24.382C8.08486 24.7829 7.6629 25.0121 7.26102 24.8923L7.54654 23.934ZM7.24571 24.0968L6.28725 23.8116C6.09171 24.4686 6.46563 25.1605 7.12344 25.3561L7.40855 24.3976L7.69365 23.4391C8.09533 23.5586 8.32351 23.981 8.20417 24.382L7.24571 24.0968Z" fill="#3A643C" mask="url(#path-2-inside-1_26_7393)"/>
<mask id="path-4-inside-2_26_7393" fill="white">
<path d="M8.45779 25.5427C8.45779 25.4091 8.34949 25.3008 8.21592 25.3008H7.24358C7.11001 25.3008 7.00171 25.4091 7.00171 25.5427C7.00171 25.6762 7.11001 25.7845 7.24358 25.7845H8.21592C8.34949 25.7845 8.45779 25.6762 8.45779 25.5427Z"/>
</mask>
<path d="M8.45779 25.5427C8.45779 25.4091 8.34949 25.3008 8.21592 25.3008H7.24358C7.11001 25.3008 7.00171 25.4091 7.00171 25.5427C7.00171 25.6762 7.11001 25.7845 7.24358 25.7845H8.21592C8.34949 25.7845 8.45779 25.6762 8.45779 25.5427Z" fill="#FDF8E5"/>
<path d="M8.45779 25.5427H9.45779C9.45779 24.8568 8.90178 24.3008 8.21592 24.3008V25.3008V26.3008C7.79721 26.3008 7.45779 25.9614 7.45779 25.5427H8.45779ZM8.21592 25.3008V24.3008H7.24358V25.3008V26.3008H8.21592V25.3008ZM7.24358 25.3008V24.3008C6.55772 24.3008 6.00171 24.8568 6.00171 25.5427H7.00171H8.00171C8.00171 25.9614 7.66229 26.3008 7.24358 26.3008V25.3008ZM7.00171 25.5427H6.00171C6.00171 26.2285 6.55772 26.7845 7.24358 26.7845V25.7845V24.7845C7.66229 24.7845 8.00171 25.1239 8.00171 25.5427H7.00171ZM7.24358 25.7845V26.7845H8.21592V25.7845V24.7845H7.24358V25.7845ZM8.21592 25.7845V26.7845C8.90178 26.7845 9.45779 26.2285 9.45779 25.5427H8.45779H7.45779C7.45779 25.1239 7.79721 24.7845 8.21592 24.7845V25.7845Z" fill="#3A643C" mask="url(#path-4-inside-2_26_7393)"/>
<mask id="path-6-inside-3_26_7393" fill="white">
<path d="M8.30229 26.3873L7.54341 26.8529C7.42954 26.9228 7.39387 27.0717 7.46371 27.1855C7.50936 27.2599 7.58876 27.301 7.67015 27.301C7.71326 27.301 7.75698 27.2894 7.79641 27.2652L8.55529 26.7996C8.66915 26.7297 8.70483 26.5808 8.63492 26.467C8.56502 26.3532 8.41615 26.3174 8.30229 26.3873Z"/>
</mask>
<path d="M8.30229 26.3873L7.54341 26.8529C7.42954 26.9228 7.39387 27.0717 7.46371 27.1855C7.50936 27.2599 7.58876 27.301 7.67015 27.301C7.71326 27.301 7.75698 27.2894 7.79641 27.2652L8.55529 26.7996C8.66915 26.7297 8.70483 26.5808 8.63492 26.467C8.56502 26.3532 8.41615 26.3174 8.30229 26.3873Z" fill="#FDF8E5"/>
<path d="M8.30229 26.3873L7.77943 25.5349L7.77933 25.5349L8.30229 26.3873ZM7.54341 26.8529L7.02045 26.0005L7.02022 26.0007L7.54341 26.8529ZM7.46371 27.1855L6.61141 27.7086L6.61146 27.7087L7.46371 27.1855ZM7.79641 27.2652L8.31934 28.1176L8.31937 28.1176L7.79641 27.2652ZM8.55529 26.7996L9.07825 27.652L9.07848 27.6518L8.55529 26.7996ZM8.30229 26.3873L7.77933 25.5349L7.02045 26.0005L7.54341 26.8529L8.06637 27.7052L8.82525 27.2396L8.30229 26.3873ZM7.54341 26.8529L7.02022 26.0007C6.43616 26.3592 6.25247 27.1237 6.61141 27.7086L7.46371 27.1855L8.316 26.6625C8.53527 27.0197 8.42293 27.4863 8.0666 27.7051L7.54341 26.8529ZM7.46371 27.1855L6.61146 27.7087C6.8463 28.0912 7.2553 28.301 7.67015 28.301V27.301V26.301C7.92222 26.301 8.17243 26.4286 8.31596 26.6624L7.46371 27.1855ZM7.67015 27.301V28.301C7.89255 28.301 8.1181 28.2411 8.31934 28.1176L7.79641 27.2652L7.27348 26.4128C7.39586 26.3378 7.53398 26.301 7.67015 26.301V27.301ZM7.79641 27.2652L8.31937 28.1176L9.07825 27.652L8.55529 26.7996L8.03233 25.9473L7.27345 26.4129L7.79641 27.2652ZM8.55529 26.7996L9.07848 27.6518C9.66254 27.2933 9.84636 26.5286 9.48702 25.9436L8.63492 26.467L7.78283 26.9904C7.56329 26.633 7.67575 26.1662 8.0321 25.9474L8.55529 26.7996ZM8.63492 26.467L9.48702 25.9436C9.12858 25.36 8.36451 25.176 7.77943 25.5349L8.30229 26.3873L8.82515 27.2397C8.46778 27.4589 8.00146 27.3463 7.78283 26.9904L8.63492 26.467Z" fill="#3A643C" mask="url(#path-6-inside-3_26_7393)"/>
<mask id="path-8-inside-4_26_7393" fill="white">
<path d="M17.3653 26.7231L16.0592 26.3343C15.9312 26.2962 15.7966 26.3692 15.7584 26.4972C15.7203 26.6252 15.7932 26.7599 15.9212 26.798L17.2274 27.1868C17.2504 27.1936 17.2736 27.1969 17.2965 27.1969C17.4007 27.1969 17.4969 27.129 17.5282 27.024C17.5663 26.896 17.4934 26.7612 17.3653 26.7231Z"/>
</mask>
<path d="M17.3653 26.7231L16.0592 26.3343C15.9312 26.2962 15.7966 26.3692 15.7584 26.4972C15.7203 26.6252 15.7932 26.7599 15.9212 26.798L17.2274 27.1868C17.2504 27.1936 17.2736 27.1969 17.2965 27.1969C17.4007 27.1969 17.4969 27.129 17.5282 27.024C17.5663 26.896 17.4934 26.7612 17.3653 26.7231Z" fill="#FDF8E5"/>
<path d="M17.3653 26.7231L17.08 27.6816L17.0802 27.6816L17.3653 26.7231ZM16.0592 26.3343L16.3445 25.3759L16.3445 25.3759L16.0592 26.3343ZM15.7584 26.4972L14.8001 26.2115L14.7999 26.2119L15.7584 26.4972ZM15.9212 26.798L16.2066 25.8396L16.2065 25.8395L15.9212 26.798ZM17.2274 27.1868L16.942 28.1452L16.943 28.1455L17.2274 27.1868ZM17.5282 27.024L18.4865 27.3097L18.4868 27.3088L17.5282 27.024ZM17.3653 26.7231L17.6507 25.7647L16.3445 25.3759L16.0592 26.3343L15.7739 27.2928L17.08 27.6816L17.3653 26.7231ZM16.0592 26.3343L16.3445 25.3759C15.6868 25.1801 14.9958 25.5549 14.8001 26.2115L15.7584 26.4972L16.7167 26.7828C16.5973 27.1834 16.1757 27.4123 15.774 27.2928L16.0592 26.3343ZM15.7584 26.4972L14.7999 26.2119C14.6043 26.8693 14.9786 27.5608 15.636 27.7565L15.9212 26.798L16.2065 25.8395C16.6078 25.959 16.8363 26.3811 16.7169 26.7824L15.7584 26.4972ZM15.9212 26.798L15.6359 27.7564L16.942 28.1452L17.2274 27.1868L17.5127 26.2284L16.2066 25.8396L15.9212 26.798ZM17.2274 27.1868L16.943 28.1455C17.0589 28.1799 17.1779 28.1969 17.2965 28.1969V27.1969V26.1969C17.3693 26.1969 17.4419 26.2074 17.5117 26.2281L17.2274 27.1868ZM17.2965 27.1969V28.1969C17.8311 28.1969 18.3255 27.8498 18.4865 27.3097L17.5282 27.024L16.57 26.7382C16.6684 26.4082 16.9703 26.1969 17.2965 26.1969V27.1969ZM17.5282 27.024L18.4868 27.3088C18.682 26.652 18.3083 25.9603 17.6505 25.7646L17.3653 26.7231L17.0802 27.6816C16.6785 27.5621 16.4506 27.1399 16.5697 26.7392L17.5282 27.024Z" fill="#3A643C" mask="url(#path-8-inside-4_26_7393)"/>
<mask id="path-10-inside-5_26_7393" fill="white">
<path d="M17.6179 24.8242H16.2822C16.1486 24.8242 16.0403 24.9325 16.0403 25.0661C16.0403 25.1997 16.1486 25.308 16.2822 25.308H17.6179C17.7515 25.308 17.8598 25.1997 17.8598 25.0661C17.8598 24.9325 17.7515 24.8242 17.6179 24.8242Z"/>
</mask>
<path d="M17.6179 24.8242H16.2822C16.1486 24.8242 16.0403 24.9325 16.0403 25.0661C16.0403 25.1997 16.1486 25.308 16.2822 25.308H17.6179C17.7515 25.308 17.8598 25.1997 17.8598 25.0661C17.8598 24.9325 17.7515 24.8242 17.6179 24.8242Z" fill="#FDF8E5"/>
<path d="M17.6179 24.8242V23.8242H16.2822V24.8242V25.8242H17.6179V24.8242ZM16.2822 24.8242V23.8242C15.5963 23.8242 15.0403 24.3802 15.0403 25.0661H16.0403H17.0403C17.0403 25.4848 16.7009 25.8242 16.2822 25.8242V24.8242ZM16.0403 25.0661H15.0403C15.0403 25.752 15.5963 26.308 16.2822 26.308V25.308V24.308C16.7009 24.308 17.0403 24.6474 17.0403 25.0661H16.0403ZM16.2822 25.308V26.308H17.6179V25.308V24.308H16.2822V25.308ZM17.6179 25.308V26.308C18.3038 26.308 18.8598 25.752 18.8598 25.0661H17.8598H16.8598C16.8598 24.6474 17.1992 24.308 17.6179 24.308V25.308ZM17.8598 25.0661H18.8598C18.8598 24.3802 18.3038 23.8242 17.6179 23.8242V24.8242V25.8242C17.1992 25.8242 16.8598 25.4848 16.8598 25.0661H17.8598Z" fill="#3A643C" mask="url(#path-10-inside-5_26_7393)"/>
<mask id="path-12-inside-6_26_7393" fill="white">
<path d="M15.9904 23.8652C16.0335 23.8652 16.0772 23.8537 16.1167 23.8295L17.1585 23.1903C17.2724 23.1205 17.3081 22.9715 17.2382 22.8577C17.1683 22.7438 17.0195 22.708 16.9056 22.778L15.8637 23.4171C15.7499 23.487 15.7142 23.6359 15.784 23.7498C15.8296 23.8242 15.9091 23.8652 15.9904 23.8652Z"/>
</mask>
<path d="M15.9904 23.8652C16.0335 23.8652 16.0772 23.8537 16.1167 23.8295L17.1585 23.1903C17.2724 23.1205 17.3081 22.9715 17.2382 22.8577C17.1683 22.7438 17.0195 22.708 16.9056 22.778L15.8637 23.4171C15.7499 23.487 15.7142 23.6359 15.784 23.7498C15.8296 23.8242 15.9091 23.8652 15.9904 23.8652Z" fill="#FDF8E5"/>
<path d="M16.1167 23.8295L15.5938 22.9771L15.5934 22.9773L16.1167 23.8295ZM17.1585 23.1903L16.6357 22.3379L16.6356 22.3379L17.1585 23.1903ZM17.2382 22.8577L18.0906 22.3348L18.0904 22.3345L17.2382 22.8577ZM16.9056 22.778L17.4285 23.6304L17.4291 23.63L16.9056 22.778ZM15.8637 23.4171L16.3866 24.2695L16.3866 24.2695L15.8637 23.4171ZM15.784 23.7498L16.6368 23.2274L16.6364 23.2269L15.784 23.7498ZM15.9904 23.8652V24.8652C16.2123 24.8652 16.438 24.8056 16.64 24.6816L16.1167 23.8295L15.5934 22.9773C15.7163 22.9018 15.8547 22.8652 15.9904 22.8652V23.8652ZM16.1167 23.8295L16.6396 24.6818L17.6814 24.0427L17.1585 23.1903L16.6356 22.3379L15.5938 22.9771L16.1167 23.8295ZM17.1585 23.1903L17.6814 24.0427C18.2661 23.6841 18.4492 22.9194 18.0906 22.3348L17.2382 22.8577L16.3858 23.3805C16.1669 23.0237 16.2787 22.5569 16.6357 22.3379L17.1585 23.1903ZM17.2382 22.8577L18.0904 22.3345C17.7323 21.7511 16.9679 21.566 16.3821 21.926L16.9056 22.778L17.4291 23.63C17.071 23.85 16.6044 23.7365 16.386 23.3809L17.2382 22.8577ZM16.9056 22.778L16.3827 21.9256L15.3408 22.5647L15.8637 23.4171L16.3866 24.2695L17.4285 23.6304L16.9056 22.778ZM15.8637 23.4171L15.3409 22.5647C14.7561 22.9234 14.573 23.6881 14.9316 24.2726L15.784 23.7498L16.6364 23.2269C16.8553 23.5837 16.7436 24.0506 16.3866 24.2695L15.8637 23.4171ZM15.784 23.7498L14.9313 24.2721C15.1664 24.656 15.5763 24.8652 15.9904 24.8652V23.8652V22.8652C16.2419 22.8652 16.4928 22.9924 16.6368 23.2274L15.784 23.7498Z" fill="#3A643C" mask="url(#path-12-inside-6_26_7393)"/>
<path d="M24.4023 18.0234C24.5572 18.0235 24.6846 18.1507 24.6846 18.3066V20.0723C24.6846 20.149 24.6555 20.2185 24.6016 20.2725L24.6006 20.2734C24.5483 20.326 24.4797 20.3554 24.4023 20.3555C24.2467 20.3555 24.1192 20.2279 24.1191 20.0723V18.3066C24.1191 18.2298 24.1482 18.1604 24.2021 18.1064C24.2562 18.0524 24.3256 18.0234 24.4023 18.0234Z" fill="#FDF8E5" stroke="#3A643C"/>
<path d="M24.5059 21.832C24.7192 21.8322 24.8916 22.0054 24.8916 22.2188C24.8915 22.432 24.7191 22.6044 24.5059 22.6045C24.2925 22.6045 24.1193 22.4321 24.1191 22.2188C24.1191 22.0053 24.2924 21.832 24.5059 21.832Z" fill="#FDF8E5" stroke="#3A643C"/>
</svg>
