<svg width="21" height="31" viewBox="0 0 21 31" fill="none" xmlns="http://www.w3.org/2000/svg">
<path d="M18.085 18.8662C18.085 18.9832 18.1669 19.081 18.2754 19.1035L18.3232 19.1084C18.4382 19.1084 18.5344 19.0253 18.5566 18.915L18.5615 18.8662C18.5615 18.7492 18.4796 18.6514 18.3711 18.6289L18.3232 18.624M18.085 18.8662H18.0615M18.085 18.8662C18.085 18.7325 18.1918 18.624 18.3232 18.624M18.085 18.8662H18.0615M18.3232 18.624V18.6084M18.3232 18.624V18.6084M18.3232 18.6084L18.3779 18.6133C18.5011 18.6386 18.585 18.748 18.585 18.8662C18.585 18.9844 18.5011 19.0938 18.3779 19.1191L18.3232 19.124L18.2686 19.1191C18.163 19.0975 18.0862 19.0138 18.0664 18.916L18.0615 18.8662M18.3232 18.6084C18.171 18.6084 18.0615 18.7313 18.0615 18.8662M12.1143 0.5V3.6416H15.4629V5.78906H11.876V9.31836L11.877 9.33496V9.33789C11.877 9.33921 11.8778 9.34109 11.8779 9.34277C11.8782 9.34614 11.8785 9.35068 11.8789 9.35547C11.8797 9.36492 11.8811 9.37703 11.8828 9.3916C11.8862 9.42142 11.8909 9.46216 11.8994 9.51074C11.9163 9.60745 11.946 9.74007 11.9971 9.89062C12.0981 10.1884 12.2922 10.581 12.6641 10.9004C13.2305 11.3921 14.003 11.5416 14.8701 11.4531L14.8711 11.4541C14.9604 11.4501 17.0072 11.3769 18.4775 12.7666V12.7676C19.388 13.6246 19.9039 14.8782 19.9512 16.5586V16.5762L19.9531 16.5928C19.953 16.5928 20.0858 18.1359 19.3564 19.8467C18.6371 21.5338 17.0623 23.4291 13.543 24.1523C13.4433 24.1723 12.2427 24.4039 10.7139 24.2383C9.12186 24.0657 7.22556 23.4695 5.82324 21.8115L5.38086 21.2881L5.01758 21.8682C4.98881 21.9141 4.94316 21.9867 4.91309 22.0439L4.90723 22.0547L4.90234 22.0664C4.7255 22.4478 4.66543 22.8791 4.64941 23.2725C4.63329 23.6689 4.66125 24.0705 4.68359 24.4004V24.4043L4.68555 24.4346C4.70604 24.7677 4.7515 25.101 4.79102 25.4033V25.4043C4.89736 26.2052 4.98535 26.9216 4.7832 27.6533V27.6543C4.52365 28.6032 3.94736 29.3871 3.10645 29.9346C3.04231 29.9074 2.96288 29.8738 2.87207 29.834C2.62114 29.7239 2.28962 29.5749 1.94922 29.4209C1.78297 29.3457 1.61658 29.2689 1.45703 29.1963C1.65252 29.1658 1.83785 29.121 2.00195 29.0596L2.00293 29.0605C2.85085 28.7463 3.17877 27.9828 3.29785 27.2646C3.41616 26.5511 3.35471 25.743 3.31055 25.1289V25.1279L3.28418 24.7686V24.7656L3.26758 24.5186C3.19546 23.358 3.12758 22.2441 3.3623 21.166C3.59342 20.1034 3.99889 19.5789 4.45215 19.3828V19.3838C4.77202 19.2461 5.11055 19.2687 5.40137 19.3477C5.62932 19.4096 5.80035 19.4998 5.86523 19.5361C6.16784 19.8508 6.52279 19.9331 6.83398 19.8809C7.09107 19.8377 7.28063 19.71 7.36621 19.6436C7.62031 19.462 7.882 19.4399 8.13184 19.4941C8.39714 19.5518 8.63298 19.6958 8.76562 19.8115L8.80273 19.8438L8.8457 19.8682C9.16143 20.0495 9.56396 20.0531 9.87207 20.0137C10.1981 19.9719 10.5489 19.8646 10.8164 19.7012L10.8184 19.7002C11.9498 19.0023 12.759 17.7677 12.9951 16.4229L13.0342 16.1523C13.1862 14.859 12.7959 13.6407 11.9131 12.7461V12.7451L11.6328 12.4492C11.0193 11.7676 10.6768 11.1569 10.4863 10.7051C10.3772 10.4462 10.3178 10.2372 10.2852 10.0957C10.2688 10.025 10.2592 9.971 10.2539 9.93555C10.2518 9.92149 10.249 9.91045 10.248 9.90234L10.2461 6.28809V5.78906H6.66016V3.6416H10.0088V0.5H12.1143ZM7.47363 20.8174C7.2584 20.5506 6.87613 20.4576 6.55469 20.6289C6.19402 20.821 6.06057 21.2672 6.24414 21.625C6.50326 22.1295 7.25111 22.9932 8.42773 22.9932C8.51425 22.9932 8.60216 22.9884 8.69141 22.9785L8.96289 22.9336C9.36679 22.8443 9.60954 22.4448 9.52539 22.0527L9.48047 21.9121C9.34506 21.6015 9.00582 21.4043 8.64551 21.4854V21.4844C8.28938 21.5633 8.03686 21.4461 7.85156 21.293C7.75256 21.2111 7.67776 21.1218 7.62793 21.0537L7.55469 20.9424L7.47363 20.8174ZM14.9629 18.0703C14.5633 17.5981 13.842 17.5125 13.3418 17.8633L13.2451 17.9395C12.7409 18.3807 12.6843 19.1512 13.1162 19.6621H13.1172C13.1766 19.7322 13.2433 19.7944 13.3154 19.8486C13.1179 19.888 12.929 19.977 12.7695 20.1162H12.7686C12.2643 20.5575 12.2086 21.3279 12.6406 21.8389V21.8398C12.8704 22.111 13.2076 22.2686 13.5645 22.2686C13.8564 22.2685 14.1378 22.1623 14.3574 21.9707C14.6024 21.7569 14.7504 21.4578 14.7744 21.1348C14.7983 20.812 14.6968 20.4948 14.4873 20.2471H14.4863C14.4273 20.1774 14.3613 20.1162 14.29 20.0635C14.4901 20.0209 14.678 19.9301 14.834 19.7939C14.842 19.787 14.8487 19.7786 14.8564 19.7715C14.6639 20.1632 14.6894 20.6417 14.9453 21.0146L15.0205 21.1133C15.2503 21.3846 15.5874 21.543 15.9443 21.543C16.2363 21.5429 16.5177 21.4367 16.7373 21.2451C16.9823 21.0313 17.1303 20.7323 17.1543 20.4092C17.1782 20.0864 17.0767 19.7692 16.8672 19.5215H16.8662C16.4401 19.0181 15.6489 18.9547 15.1494 19.3906H15.1484C15.1412 19.397 15.134 19.4037 15.127 19.4102C15.1782 19.3057 15.2153 19.1943 15.2354 19.0781L15.25 18.958C15.2709 18.6756 15.1956 18.3979 15.0361 18.167L14.9629 18.0703ZM18.4297 13.5732C18.178 13.2479 17.7104 13.1912 17.3887 13.4473L17.3877 13.4482C17.0702 13.7024 17.0174 14.1648 17.2646 14.4844L17.2656 14.4854C17.2788 14.5032 17.5605 14.8826 17.7852 15.4658C18.0055 16.0379 18.1577 16.7714 17.9863 17.5439L17.9482 17.6992C17.8999 17.8733 17.9208 18.0512 17.9912 18.2061C17.7488 18.3295 17.585 18.5809 17.585 18.8662C17.585 19.2685 17.9082 19.6084 18.3232 19.6084C18.7383 19.6084 19.0615 19.2685 19.0615 18.8662C19.0615 18.7569 19.0353 18.6531 18.9922 18.5586C19.1712 18.4672 19.3126 18.3052 19.3701 18.0986C19.709 16.8784 19.4819 15.7622 19.1768 14.959C18.8724 14.158 18.4784 13.6362 18.4297 13.5732ZM17.3428 17.1035C16.9169 16.5998 16.1249 16.5356 15.625 16.9727C15.1208 17.4139 15.0643 18.1834 15.4961 18.6943L15.4971 18.6953C15.7269 18.9664 16.0631 19.124 16.4199 19.124C16.7122 19.124 16.9941 19.018 17.2139 18.8262C17.4588 18.6124 17.6059 18.3132 17.6299 17.9902C17.6537 17.6676 17.5521 17.3511 17.3428 17.1035ZM14.7539 14.2539C14.4045 14.2539 14.0667 14.3817 13.8037 14.6113C13.1994 15.1395 13.1319 16.0636 13.6494 16.6758H13.6504C13.9256 17.001 14.328 17.1894 14.7539 17.1895C15.1029 17.1895 15.4402 17.0618 15.7031 16.832C15.996 16.5763 16.1723 16.2195 16.2012 15.832C16.2264 15.4928 16.1366 15.1595 15.9453 14.8828L15.8574 14.7686C15.5825 14.4433 15.1804 14.254 14.7539 14.2539Z" fill="#FDF8E5" stroke="#3A643C"/>
</svg>
