<svg width="42" height="37" viewBox="0 0 42 37" fill="none" xmlns="http://www.w3.org/2000/svg">
<path d="M33.3909 24.7827C24.4391 26.7827 12.1305 33.7827 14.3684 29.2827C10.4181 26.7907 34.9524 17.3851 23.32 13.2834C29.3576 7.88509 31.1189 7.29077 35.0693 9.78276C39.0196 12.2748 37.4314 16.3586 33.3909 24.7827Z" fill="#FDF8E5"/>
<path d="M27.9746 26.5C26.2962 31 24.0582 33.5 19.023 33C14.6971 33 12.3092 29.7615 12.3092 27C10.6307 23 15.2566 25 19.5825 25C23.9084 25 27.9746 23.7386 27.9746 26.5Z" fill="#FDF8E5"/>
<path d="M3.50898 23.1694C1.83505 24.4167 0.875712 26.3481 0.875712 28.4694V35.5864H0V28.4694C0 26.0616 1.08982 23.8687 2.991 22.4524C4.93026 21.0072 7.37393 20.6037 9.69588 21.347C11.8839 22.0467 13.5363 22.3968 14.4598 22.3501C18.0243 22.1851 21.0359 19.1461 21.0359 15.7144C21.0359 13.7825 20.5534 12.8137 20.0424 11.788C19.4736 10.6439 18.8278 9.34775 18.8278 6.67353V0.00133455H19.7035V6.67353C19.7035 9.13557 20.2732 10.2796 20.8244 11.3863C21.3591 12.4601 21.9116 13.5704 21.9116 15.7144C21.9116 19.6069 18.5174 23.0529 14.5 23.2393C13.4518 23.2886 11.7503 22.9372 9.43273 22.1957C7.3805 21.5392 5.221 21.8937 3.50898 23.1694ZM25.4626 13.859C25.4626 13.267 25.9364 12.7857 26.5188 12.7857C27.1015 12.7857 27.5753 13.2674 27.5753 13.859C27.5753 14.4506 27.1015 14.9324 26.5188 14.9324C25.9364 14.9319 25.4626 14.4506 25.4626 13.859ZM26.3384 13.859C26.3384 13.9605 26.4194 14.0428 26.5188 14.0428C26.6181 14.0428 26.6996 13.9605 26.6996 13.859C26.6996 13.7576 26.6181 13.6753 26.5188 13.6753C26.4194 13.6753 26.3384 13.7576 26.3384 13.859ZM25.2148 25.5794C25.2148 24.9878 25.6886 24.5061 26.2714 24.5061C26.8542 24.5061 27.3279 24.9878 27.3279 25.5794C27.3279 26.1715 26.8542 26.6528 26.2714 26.6528C25.6886 26.6528 25.2148 26.1715 25.2148 25.5794ZM26.0905 25.5794C26.0905 25.6808 26.172 25.7631 26.2714 25.7631C26.3708 25.7631 26.4522 25.6804 26.4522 25.5794C26.4522 25.4784 26.3712 25.3962 26.2714 25.3962C26.1715 25.3962 26.0905 25.4784 26.0905 25.5794ZM31.615 18.591C31.0326 18.591 30.5589 18.1092 30.5589 17.5176C30.5589 16.926 31.0326 16.4443 31.615 16.4443C32.1978 16.4443 32.6715 16.926 32.6715 17.5176C32.6715 18.1097 32.1978 18.591 31.615 18.591ZM31.615 17.7013C31.7148 17.7013 31.7958 17.6186 31.7958 17.5176C31.7958 17.4167 31.7144 17.3339 31.615 17.3339C31.5156 17.3339 31.4346 17.4162 31.4346 17.5176C31.4346 17.619 31.5156 17.7013 31.615 17.7013ZM32.8129 23.4532C32.8129 24.0453 32.3392 24.5266 31.7564 24.5266C31.174 24.5266 30.7003 24.0448 30.7003 23.4532C30.7003 22.8616 31.174 22.3799 31.7564 22.3799C32.3392 22.3799 32.8129 22.8616 32.8129 23.4532ZM31.9372 23.4532C31.9372 23.3518 31.8558 23.2695 31.7564 23.2695C31.657 23.2695 31.576 23.3518 31.576 23.4532C31.576 23.5546 31.657 23.6369 31.7564 23.6369C31.8558 23.6369 31.9372 23.5542 31.9372 23.4532ZM18.3532 27.6905C18.0624 27.1776 18.2358 26.5198 18.7402 26.224C19.2442 25.9286 19.8914 26.1043 20.1834 26.6167C20.3244 26.8654 20.3621 27.1545 20.2889 27.4316C20.2154 27.7083 20.0407 27.94 19.7964 28.0833C19.6304 28.1802 19.4491 28.2265 19.27 28.2265C18.9049 28.2265 18.5489 28.0339 18.3532 27.6905ZM19.1115 27.2457C19.161 27.3324 19.2709 27.3636 19.3581 27.3124C19.4145 27.2795 19.4356 27.2283 19.4426 27.2008C19.4496 27.1732 19.4566 27.1189 19.4242 27.0615C19.3909 27.0028 19.3296 26.9695 19.2674 26.9695C19.2372 26.9695 19.2057 26.9775 19.1777 26.9939C19.0918 27.0451 19.0621 27.1576 19.1115 27.2457ZM31.3006 19.6105L31.069 18.7524C29.3219 19.2391 28.2899 21.0792 28.7685 22.8545L29.6135 22.6196C29.2619 21.3177 30.0194 19.9677 31.3006 19.6105ZM26.1475 16.7294L25.9132 17.5866C26.2057 17.6693 26.503 17.7102 26.7985 17.7102C27.3573 17.7102 27.9094 17.5639 28.4094 17.277C29.1739 16.8384 29.7243 16.1236 29.9594 15.2647L29.1152 15.0267C28.9427 15.657 28.5395 16.181 27.9786 16.5026C27.4177 16.8237 26.7675 16.9042 26.1475 16.7294ZM24.1224 25.0314L24.5204 24.2392C22.9064 23.4025 20.923 24.055 20.0989 25.6946L20.8787 26.099C21.4834 24.8962 22.9367 24.4171 24.1224 25.0314ZM34.1072 12.3969L34.5972 11.6599C33.0967 10.6306 31.0497 11.0314 30.0352 12.5566L30.7603 13.0548C31.5051 11.9361 33.0065 11.6412 34.1072 12.3969ZM26.2862 23.6218L26.7517 22.8683C26.2928 22.5756 25.9736 22.1192 25.8523 21.5823C25.7311 21.0454 25.8234 20.4934 26.1111 20.0268L25.3698 19.554C24.9574 20.2212 24.8256 21.0121 24.9985 21.7803C25.1715 22.5489 25.629 23.2028 26.2862 23.6218ZM17.7822 28.5712L17.4394 27.7528C16.9437 27.9667 16.3968 27.9721 15.8986 27.7688C15.3994 27.5651 15.0088 27.1759 14.7978 26.6732L13.9921 27.022C14.2942 27.743 14.8556 28.3012 15.571 28.5944C15.92 28.7367 16.2852 28.8079 16.6499 28.8079C17.0344 28.8074 17.4184 28.7287 17.7822 28.5712ZM34.1256 19.098C34.299 19.9619 33.7486 20.8084 32.8979 20.9854L33.073 21.8568C34.3962 21.5819 35.2531 20.2644 34.983 18.9201L34.1256 19.098ZM33.4233 14.4653L32.5485 14.5098C32.5813 15.1739 32.8668 15.7851 33.3519 16.2312C33.8064 16.6485 34.3844 16.8744 34.9926 16.8744C35.0346 16.8744 35.0762 16.8735 35.1182 16.8713L35.0745 15.983C34.648 16.0004 34.2513 15.858 33.9391 15.572C33.6278 15.2842 33.4443 14.8919 33.4233 14.4653ZM18.4793 30.3403C17.907 30.3625 17.3557 30.1663 16.9306 29.7736L16.3412 30.4314C16.903 30.951 17.6202 31.2321 18.3751 31.2321C18.4232 31.2321 18.4723 31.2312 18.5204 31.2285C19.3278 31.1898 20.0722 30.8344 20.616 30.2268L19.9684 29.6281C19.5822 30.06 19.0533 30.3127 18.4793 30.3403ZM20.4956 29.0868L21.1432 29.6855C21.5303 29.254 22.0588 29.0009 22.6328 28.9733C23.2037 28.9413 23.7563 29.1468 24.181 29.5396L24.7704 28.8817C24.1732 28.3293 23.4043 28.0464 22.5912 28.0846C21.7838 28.1233 21.0394 28.4792 20.4956 29.0868ZM37.6863 30.9795C37.6863 34.2991 35.0276 37 31.7599 37C29.5303 37 27.5858 35.7416 26.5744 33.8881C23.9472 35.0201 21.289 35.6051 18.7534 35.6055C17.9412 35.6055 17.1412 35.5464 16.3592 35.4267C13.2106 34.9459 10.7012 33.0243 9.64728 30.286C9.32677 29.4524 8.57979 28.9142 7.74436 28.9142C6.59674 28.9142 5.69213 29.8332 5.69213 30.9626V35.5864H4.81642V30.9626C4.81642 29.3425 6.11378 28.0246 7.70846 28.0246C8.94234 28.0246 10.0098 28.7847 10.463 29.9613C11.4013 32.3993 13.6541 34.1132 16.4892 34.5464C19.5476 35.0139 22.8986 34.4984 26.2114 33.075C26.0489 32.6333 25.9338 32.1689 25.8777 31.6849C23.6022 32.6626 21.2518 33.1826 19.041 33.1826C18.3628 33.1826 17.6911 33.1328 17.0444 33.0349C14.7855 32.6889 12.8038 31.1418 11.9951 29.0934C11.6163 28.1353 11.4749 26.6403 11.5743 24.6507L11.601 24.1204L12.1107 24.2401C13.2824 24.515 14.2452 24.64 14.9615 24.6017C19.6444 24.3842 23.452 20.4925 23.452 15.9256C23.452 14.4311 23.3215 13.9004 23.2072 13.6055L23.0882 13.295L23.3478 13.0913C24.9687 11.8191 26.7828 10.6226 27.866 9.90732C28.1445 9.72361 28.3678 9.57638 28.518 9.47363C29.5785 8.74947 30.6644 8.34291 31.8378 8.23082C32.0331 8.21214 32.2306 8.20235 32.4232 8.20235C34.9773 8.20235 37.9604 9.92912 37.9604 14.7967C37.9604 18.5767 36.6175 22.2424 34.0744 25.4384C34.4974 25.6212 34.891 25.8579 35.257 26.1305C37.9709 22.657 39.4071 18.6661 39.4071 14.5587C39.4071 11.8685 38.569 9.67202 36.9831 8.2068C35.5824 6.9124 33.7035 6.30612 31.6916 6.50005C30.2751 6.63661 28.9734 7.11879 27.7119 7.97461C26.8257 8.57555 25.7262 8.70099 24.773 8.31133C23.5637 7.81715 22.7856 6.6504 22.7821 5.33553L22.7685 0.00222412L23.6442 0L23.6578 5.33242C23.6604 6.28343 24.2231 7.12724 25.0913 7.4822C25.7845 7.76599 26.5801 7.67258 27.225 7.23444C28.61 6.295 30.0439 5.76478 31.6084 5.61399C33.8686 5.39736 35.9865 6.08282 37.572 7.54848C39.3453 9.18717 40.2828 11.611 40.2828 14.5587C40.2828 18.8783 38.7752 23.0676 35.9261 26.7035C37.012 27.795 37.6863 29.3083 37.6863 30.9795ZM25.8462 30.7286C25.9771 27.5255 28.5758 24.9585 31.7603 24.9585C32.2503 24.9585 32.724 25.0261 33.1799 25.1404C35.7334 22.0427 37.0847 18.4722 37.0847 14.7954C37.0847 10.5848 34.574 9.09065 32.4232 9.09065C32.2573 9.09065 32.087 9.09954 31.9197 9.11555C30.8956 9.21341 29.9428 9.57193 29.0071 10.2107C28.8543 10.3152 28.627 10.4656 28.3433 10.6524C27.3257 11.3241 25.6566 12.425 24.1276 13.6037C24.2375 14.0183 24.3277 14.6748 24.3277 15.9248C24.3277 20.96 20.1453 25.2512 15.0049 25.4896C14.328 25.5247 13.4601 25.4357 12.4285 25.2209C12.3834 26.7991 12.5131 28.0166 12.8077 28.7621C13.5035 30.5231 15.2177 31.8553 17.1749 32.1551C19.8633 32.563 22.9257 32.0434 25.8462 30.7286ZM36.8106 30.9795C36.8106 28.1504 34.5447 25.8485 31.7599 25.8485C28.9751 25.8485 26.7092 28.15 26.7092 30.9795C26.7092 33.8089 28.9751 36.1104 31.7599 36.1104C34.5447 36.1104 36.8106 33.8085 36.8106 30.9795ZM31.252 32.6391L29.5141 30.874L28.895 31.503L31.3785 34.026L34.6944 29.1041L33.9719 28.6015L31.252 32.6391Z" fill="#3A643C"/>
</svg>
