<svg width="36" height="41" viewBox="0 0 36 41" fill="none" xmlns="http://www.w3.org/2000/svg">
<path d="M7.17578 0.251953C7.17967 0.250628 7.24313 0.228759 7.49023 0.388672C11.5616 3.02442 15.6541 5.53863 19.708 8.18652C21.7206 9.50108 23.8112 10.5534 25.5557 12.1494C26.9542 13.4289 27.8865 15.0947 28.3896 17.0137C28.9861 19.2885 28.625 21.5253 28.166 23.8223C27.646 26.4244 27.156 29.0351 26.6514 31.6377C26.0762 34.6044 25.4828 37.5722 24.9385 40.5488C24.9048 40.7331 24.8672 40.7536 24.875 40.748C24.8811 40.7439 24.8808 40.7473 24.8574 40.749C24.8309 40.751 24.7902 40.7491 24.7246 40.7393C22.9548 40.4724 21.1852 40.2021 19.3506 39.9199C19.2471 39.8134 19.2044 39.7082 19.1904 39.5957C19.1726 39.4518 19.1966 39.2971 19.2275 39.0986C19.6783 36.2078 20.1387 33.3183 20.6084 30.4307C20.8672 28.8392 21.6135 27.5081 22.6699 26.3232C23.0608 25.8848 23.2974 25.4931 23.2695 25.0635C23.2423 24.6446 22.9656 24.2665 22.5752 23.8467C21.5686 22.7646 20.2362 22.4373 19.043 22.0654C18.2626 21.8222 17.5219 22.1367 17.0332 22.8369C16.7886 23.1874 16.6423 23.5561 16.6172 23.9424C16.5921 24.3294 16.6894 24.7154 16.9004 25.0967C16.9815 25.2433 17.0668 25.3864 17.1504 25.5254C17.2347 25.6656 17.3171 25.8015 17.3955 25.9395C17.8841 26.7996 18.0797 27.7143 17.9209 28.6953C17.3827 32.0171 16.8604 35.3378 16.2764 38.6475C16.22 38.967 16.1948 39.18 16.0049 39.3584C14.9663 39.3997 13.9965 39.1841 12.9688 39.0195C12.4956 38.9438 11.9873 38.8824 11.5283 38.8145C11.3975 38.7951 11.3264 38.7725 11.2891 38.7559C11.2912 38.7427 11.2948 38.723 11.3018 38.6963C11.3105 38.6625 11.3215 38.6243 11.3359 38.5771C11.3499 38.5313 11.3668 38.4783 11.3828 38.4209C12.2381 35.3592 13.018 32.2463 12.8398 28.959C12.823 28.6474 12.7743 28.3427 12.7324 28.0557C12.6899 27.7642 12.654 27.4862 12.6514 27.2031C12.6312 25.0023 13.327 23.0033 14.3125 21.0938C14.3878 20.9479 14.4395 20.8167 14.458 20.6973C14.4776 20.5707 14.4616 20.4444 14.3867 20.335C14.3183 20.2352 14.221 20.18 14.1504 20.1465C14.0895 20.1177 13.9894 20.0799 13.9414 20.0596C12.5113 19.4522 11.1014 18.8095 9.76172 18.0381C7.06358 16.4845 4.43062 14.8642 2.12207 12.7344C1.5728 12.2276 1.0728 11.7209 0.519531 11.2002C0.339083 11.0303 0.269605 10.9149 0.253906 10.8174C0.239569 10.7283 0.261979 10.5935 0.427734 10.3623C1.22398 9.25173 1.95325 8.0534 2.7334 6.89551C2.91314 6.9045 3.05672 6.98453 3.23926 7.10449C6.80812 9.44988 10.3741 11.8038 13.957 14.1289C15.1435 14.8989 15.976 15.9101 16.2891 17.3467C16.4108 17.905 16.6321 18.4794 17.1191 18.8955C18.2033 19.8213 19.8146 19.4115 20.416 18.0566C20.8037 17.1831 21.195 16.3785 21.8184 15.707C22.4711 15.0038 22.4022 14.1316 22.0957 13.3701C21.7762 12.5769 21.1298 12.1931 20.3389 12.1309C19.8939 12.0959 19.4786 12.1927 19.0908 12.3027C18.2018 12.555 17.3767 12.46 16.5801 11.9453C12.7012 9.43922 8.87615 6.87285 5.00098 4.35059C4.86898 4.26466 4.76607 4.18819 4.68457 4.06445C5.43237 2.85235 6.20329 1.70222 6.95898 0.521484C7.02204 0.422977 7.06806 0.355631 7.10938 0.308594C7.14923 0.263236 7.16993 0.253987 7.17578 0.251953Z" fill="#FDF8E5" stroke="#3A643C" stroke-width="0.5"/>
<path d="M4.43604 4.28418C5.67878 4.86199 6.73154 5.70078 7.90479 6.4668C10.7401 8.31801 13.5512 10.211 16.3677 12.0996C17.2471 12.6893 18.1707 12.7437 19.1138 12.4023C20.0922 12.0482 20.9949 12.283 21.4907 12.9453L21.5845 13.083C21.8625 13.5369 21.9635 14.0154 21.897 14.4834C21.8302 14.9528 21.5919 15.4287 21.1636 15.8691C20.5762 16.4731 20.3274 17.2514 20.0552 17.9307C19.7427 18.7102 19.0218 19.1877 18.2778 19.1465C17.8577 19.1231 17.4682 19.0196 17.1724 18.8271C16.8835 18.6393 16.6766 18.3626 16.6118 17.9609C16.1604 15.1593 14.1299 13.9592 12.2349 12.7314C9.23937 10.7907 6.28034 8.78986 3.30322 6.80859C3.21321 6.74869 3.12981 6.67305 3.02783 6.57422C3.47208 5.79437 3.93518 5.04734 4.43604 4.28418Z" fill="#E0E8E2" stroke="#3A643C" stroke-width="0.5"/>
<path d="M18.395 22.3037C20.2127 22.6043 21.8441 23.1841 22.9907 24.6279C23.1601 24.8412 23.2607 25.0745 23.2729 25.2852C23.2844 25.4853 23.2184 25.6799 23.0239 25.8496C21.0039 27.611 20.3542 29.9317 20.0181 32.3799C19.6783 34.8543 19.2353 37.3083 18.8267 39.8467C17.9433 39.7667 17.0572 39.6417 16.1206 39.501C16.6958 35.8561 17.3484 32.231 17.9565 28.5879C18.1688 27.3158 17.5964 26.2525 16.9272 25.2959C16.5374 24.7386 16.4506 24.141 16.5972 23.6289C16.744 23.1165 17.1308 22.6674 17.729 22.4189C17.9719 22.3181 18.1916 22.2702 18.395 22.3037Z" fill="#E0E8E2" stroke="#3A643C" stroke-width="0.5"/>
<path d="M31.6151 15.1046C32.4842 14.7897 33.2917 14.4781 34.1014 14.1732C34.3851 14.0664 34.6891 14.0523 34.7892 14.4208C34.8825 14.7647 34.855 15.1135 34.4301 15.2513C33.5858 15.525 32.7465 15.8177 31.9085 16.1135C31.4926 16.2603 30.9954 16.5645 30.7981 15.8985C30.6086 15.2589 31.2015 15.267 31.6151 15.1046Z" fill="#3A643C"/>
<path d="M30.5533 12.1023C31.2616 11.4874 31.9367 10.9276 32.5799 10.3249C32.8681 10.0549 33.0609 10.0918 33.3047 10.369C33.5813 10.6834 33.4956 10.9395 33.2417 11.1749C32.3762 11.9772 31.5136 12.784 30.629 13.559C30.4508 13.7151 30.1744 13.7137 29.9908 13.4828C29.8152 13.2619 29.8181 12.9882 29.9658 12.7652C30.1189 12.534 30.3244 12.3465 30.5533 12.1023Z" fill="#3A643C"/>
<path d="M32.8737 19.2277C32.3747 19.3287 31.9934 19.0442 31.5688 19.0465C31.2375 19.0482 31.2323 18.738 31.2159 18.4508C31.1947 18.0796 31.398 18.0592 31.6393 18.083C32.7389 18.1913 33.8387 18.2976 34.9371 18.4193C35.269 18.4561 35.2692 18.7423 35.2845 19.0288C35.3047 19.4075 35.0896 19.3873 34.8546 19.3938C34.2113 19.4117 33.5724 19.3862 32.8737 19.2277Z" fill="#3A643C"/>
<path d="M24.0298 17.6934C24.0635 17.6927 24.181 17.7093 24.3511 17.9316C24.8134 18.5361 25.2478 19.1623 25.606 19.8252C25.7768 20.1415 25.7495 20.3535 25.7007 20.4531C25.6591 20.5379 25.5517 20.6451 25.2837 20.6504C24.5864 20.664 23.924 20.6772 23.2769 20.6045C22.8532 20.5569 22.7418 20.4241 22.7046 20.3428C22.6504 20.2238 22.6278 19.9571 22.8237 19.4453C23.1676 18.8494 23.3891 18.3805 23.7046 17.9482C23.8725 17.7182 23.9932 17.6942 24.0298 17.6934Z" fill="#E0E8E2" stroke="#3A643C"/>
</svg>
