<svg width="41" height="39" viewBox="0 0 41 39" fill="none" xmlns="http://www.w3.org/2000/svg">
<path d="M33.8255 12.262C33.2944 22.3916 27.3497 10.4546 20.0166 10.4546C18.1766 11.1937 7.30772 22.9205 6.49219 12.26C6.49219 5.78226 12.6835 0 20.0166 0C27.3497 0 33.8255 5.78434 33.8255 12.262Z" fill="#FDF8E5"/>
<path d="M30.9538 38.3276C28.686 37.8986 27.0375 36.7559 26.0456 34.9366C24.616 32.3089 25.0491 29.2273 25.24 28.7777C26.9444 27.6226 28.211 26.1128 29.1517 24.079C30.5347 24.0501 31.9038 23.1055 32.8305 21.542C33.6035 20.2343 34.0133 18.4316 33.1798 17.3631C33.0121 17.1445 32.756 16.9176 32.3741 16.7567C33.38 15.0654 33.5849 13.6463 33.5849 11.8229C33.5849 5.30506 27.5125 0 20.0524 0C17.0116 0 14.1989 0.882801 11.9357 2.36789C11.9264 2.37201 11.9171 2.37614 11.9078 2.38026C11.8799 2.39676 11.8566 2.41739 11.8333 2.43802C8.60152 4.59964 6.5153 8.00296 6.5153 11.8229C6.5153 13.8154 6.56187 14.9045 7.56306 16.5175C7.09273 16.6783 6.79005 16.9382 6.59912 17.1857C5.76556 18.2583 6.1707 20.0569 6.94838 21.3646C7.88904 22.9569 9.29071 23.9058 10.697 23.9058C10.7622 23.9058 10.8228 23.8893 10.874 23.8645C11.8845 26.0179 13.2257 27.6721 14.8648 28.7777C15.0511 29.2232 15.4888 32.3047 14.0592 34.9366C13.0673 36.7559 11.4142 37.8986 9.15101 38.3317C8.94611 38.3688 8.81573 38.5504 8.85764 38.7319C8.89489 38.8886 9.05322 39 9.23017 39C9.25811 39 9.2814 38.9959 9.30934 38.9917C13.4119 38.2121 14.944 35.4523 15.5075 33.2742C15.866 31.8963 15.8986 30.3618 15.7636 29.3593C17.0395 30.073 18.5297 30.4566 20.0524 30.4566C21.5752 30.4566 23.07 30.0689 24.3413 29.3593C24.2016 30.3659 24.2388 31.8963 24.5974 33.2742C25.1609 35.4523 26.6929 38.2121 30.7955 38.9917C30.8234 38.9959 30.8514 39 30.8747 39C31.0516 39 31.21 38.8927 31.2472 38.7319C31.2891 38.5421 31.1587 38.3647 30.9538 38.3276ZM32.8212 11.8188C32.8212 13.8649 32.5045 15.1314 31.6197 16.5628C31.4614 16.5463 31.2938 16.5381 31.1075 16.5422C31.9457 7.33055 25.2726 5.09054 25.2028 5.06992C25.0025 5.00804 24.7883 5.09879 24.7138 5.27205C24.644 5.44531 24.7464 5.6392 24.942 5.7052C24.9979 5.7217 29.5568 7.26042 30.3066 13.2626C27.6569 7.46255 19.5076 7.51206 19.4098 7.52031C19.2002 7.52443 19.0326 7.67707 19.0373 7.8627C19.0419 8.04834 19.2096 8.19272 19.4191 8.19272C19.4238 8.19272 19.4238 8.19272 19.4238 8.19272C19.8103 8.18447 28.374 8.13909 30.0691 14.8797C29.2402 13.9598 28.0294 13.1389 26.4135 12.3963C25.4915 11.9714 24.5182 11.6167 23.5776 11.2743C22.581 10.9113 21.5519 10.5359 20.5926 10.0821C16.979 8.35773 14.6692 5.53607 12.6342 2.75153C14.7251 1.44383 17.2863 0.672414 20.0478 0.672414C27.0934 0.672414 32.8212 5.6722 32.8212 11.8188ZM7.279 11.8188C7.279 8.32473 9.13238 5.20193 12.0242 3.15581C13.9521 5.79596 16.1408 8.46911 19.461 10.2677C18.7206 11.1216 15.3305 14.7147 9.77036 16.1874C10.0637 13.5638 12.7972 10.9608 12.8252 10.936C12.9695 10.7999 12.9602 10.5854 12.8112 10.4575C12.6575 10.3296 12.4154 10.3378 12.2757 10.4699C12.1453 10.5936 9.16032 13.4276 8.99268 16.3772C8.98802 16.3772 8.98337 16.3772 8.97871 16.3813C8.75053 16.3607 8.54098 16.3566 8.35005 16.3648C7.32557 14.7972 7.279 13.8195 7.279 11.8188ZM15.3864 28.2785C13.6494 27.1193 12.2617 25.3042 11.2698 22.9033L10.6272 20.9768C10.5667 20.7994 10.3571 20.6963 10.1522 20.7499C9.95197 20.8036 9.83555 20.9892 9.89609 21.1707L10.548 23.1178C10.562 23.155 10.5806 23.188 10.5946 23.2251C9.32331 23.1673 8.23363 22.0741 7.62826 21.0511C6.83661 19.7145 6.67363 18.2831 7.23244 17.5694C7.56306 17.1445 8.14516 16.9754 8.96474 17.0661C8.97405 17.0661 8.98802 17.0661 8.99734 17.0661C9.00199 17.0661 9.00665 17.0661 9.01131 17.0661C9.01596 17.0661 9.02062 17.0661 9.02528 17.0661C9.04856 17.0661 9.07185 17.062 9.09513 17.0579C9.09979 17.0579 9.09979 17.0579 9.10444 17.0579H9.1091C9.11376 17.0579 9.11841 17.0579 9.12307 17.0537C9.21155 17.0331 9.30003 17.0125 9.38385 16.9919C9.43507 16.9877 9.4863 16.9754 9.53286 16.9589C15.8055 15.4614 19.4424 11.4352 20.1269 10.6184C20.1688 10.639 20.2108 10.6637 20.2527 10.6844C21.2445 11.1546 22.2923 11.5383 23.3028 11.9054C24.2249 12.2437 25.1841 12.5902 26.0782 13.0027C28.3693 14.0506 29.771 15.251 30.3717 16.666C30.3717 16.6701 30.3764 16.6701 30.3764 16.6742C30.3811 16.6825 30.3857 16.6948 30.3904 16.7031C30.395 16.7113 30.3997 16.7196 30.409 16.7278C30.4137 16.7361 30.423 16.7443 30.4276 16.7526C30.4276 16.7526 30.4276 16.7567 30.4323 16.7567C30.3997 16.8145 30.3811 16.8846 30.3904 16.9547C30.4137 17.1404 30.6046 17.2724 30.8141 17.2476C31.6337 17.161 32.2158 17.3301 32.5464 17.7509C33.1052 18.4646 32.9423 19.9001 32.1506 21.2326C31.5872 22.1855 30.6046 23.1921 29.4451 23.3777C29.5522 23.1096 29.6593 22.8332 29.7571 22.5485L30.2041 20.882C30.2507 20.7004 30.1249 20.5189 29.92 20.4777C29.7151 20.4364 29.5102 20.5478 29.4637 20.7293L29.0213 22.3753C28.0853 25.0649 26.7209 26.9419 24.7045 28.2909C24.6998 28.2909 24.6998 28.295 24.6952 28.295C23.3913 29.2521 21.7428 29.7801 20.0478 29.7801C18.3574 29.776 16.7042 29.2479 15.3864 28.2785Z" fill="#3A643C"/>
<path d="M16.8762 17.9282C15.0601 19.1658 12.8481 17.9612 12.7503 17.9117C12.5734 17.8127 12.3359 17.8581 12.2241 18.0148C12.1124 18.1716 12.1636 18.382 12.3405 18.481C12.415 18.5222 13.5792 19.1617 15.0042 19.1617C15.7493 19.1617 16.5642 18.9884 17.3326 18.4645C17.5002 18.3531 17.5328 18.1386 17.4024 17.9901C17.2813 17.8457 17.0438 17.8168 16.8762 17.9282Z" fill="#3A643C"/>
<path d="M27.7538 18.4814C27.9308 18.3824 27.982 18.1761 27.8703 18.0152C27.7585 17.8585 27.5257 17.809 27.344 17.908C27.2509 17.9616 25.039 19.1621 23.2182 17.9245C23.0505 17.809 22.813 17.8379 22.6827 17.9864C22.5523 18.1349 22.5849 18.3453 22.7525 18.4608C23.5209 18.9847 24.3358 19.1579 25.0809 19.1579C26.5152 19.1621 27.684 18.5227 27.7538 18.4814Z" fill="#3A643C"/>
<path d="M4.88957 17.3127C3.13864 17.1683 2.99894 14.6024 2.99894 14.5776C2.98962 14.3961 2.82198 14.2559 2.61708 14.2559C2.41219 14.2559 2.24455 14.4002 2.23523 14.5776C2.23523 14.6024 2.09553 17.1683 0.344598 17.3127C0.149015 17.3292 0 17.4735 0 17.6468C0 17.8201 0.149015 17.9644 0.344598 17.981C1.7975 18.1006 2.20263 20.5716 2.23523 21.5122C2.23989 21.6937 2.41219 21.838 2.61708 21.838C2.82198 21.838 2.98962 21.6937 2.99894 21.5122C3.03153 20.5716 3.43667 18.1006 4.88957 17.981C5.08515 17.9644 5.23417 17.8201 5.23417 17.6468C5.23417 17.4735 5.08515 17.3292 4.88957 17.3127ZM2.61708 19.4372C2.3889 18.7606 2.02102 18.08 1.43893 17.6757C2.02102 17.3415 2.3889 16.7929 2.61708 16.2484C2.84526 16.7929 3.21315 17.3415 3.79524 17.6757C3.21315 18.08 2.84526 18.7606 2.61708 19.4372Z" fill="#3A643C"/>
<path d="M40.0243 6.74821C38.2734 6.60382 38.1337 4.03793 38.1337 4.01318C38.1244 3.83166 37.9567 3.69141 37.7519 3.69141C37.547 3.69141 37.3793 3.83579 37.37 4.01318C37.37 4.03793 37.2303 6.60382 35.4794 6.74821C35.2838 6.76471 35.1348 6.90909 35.1348 7.08235C35.1348 7.25561 35.2838 7.4 35.4794 7.4165C36.9323 7.53613 37.3374 10.0071 37.37 10.9477C37.3747 11.1292 37.547 11.2736 37.7519 11.2736C37.9567 11.2736 38.1244 11.1292 38.1337 10.9477C38.1663 10.0071 38.5714 7.53613 40.0243 7.4165C40.2199 7.4 40.3689 7.25561 40.3689 7.08235C40.3689 6.90909 40.2199 6.76471 40.0243 6.74821ZM37.7565 8.87271C37.5283 8.19617 37.1604 7.5155 36.5784 7.11123C37.1604 6.77708 37.5283 6.22843 37.7565 5.6839C37.9847 6.22843 38.3526 6.77708 38.9347 7.11123C38.3479 7.5155 37.9847 8.19617 37.7565 8.87271Z" fill="#3A643C"/>
<path d="M7.62838 24.2468C6.83673 24.1808 6.77154 22.9886 6.77154 22.9762C6.76688 22.8566 6.65512 22.7617 6.52008 22.7617C6.38503 22.7617 6.27327 22.8566 6.26861 22.9762C6.26861 22.9886 6.1941 24.1808 5.41177 24.2468C5.28139 24.2592 5.18359 24.3541 5.18359 24.4696C5.18359 24.5851 5.28139 24.6841 5.41177 24.6923C6.06372 24.746 6.24999 25.934 6.26861 26.3466C6.27327 26.4662 6.38503 26.5652 6.52008 26.5652C6.65512 26.5652 6.77154 26.4703 6.77154 26.3466C6.78551 25.934 6.97644 24.746 7.62838 24.6923C7.75877 24.68 7.85656 24.5851 7.85656 24.4696C7.85656 24.3541 7.75877 24.2592 7.62838 24.2468ZM6.52008 25.1337C6.41763 24.8862 6.26861 24.6552 6.06372 24.4902C6.26861 24.3499 6.41763 24.1561 6.52008 23.9539C6.62252 24.1561 6.77154 24.3499 6.97644 24.4902C6.77154 24.6552 6.62252 24.8862 6.52008 25.1337Z" fill="#3A643C"/>
</svg>
