<svg width="10" height="18" viewBox="0 0 10 18" fill="none" xmlns="http://www.w3.org/2000/svg">
<path d="M0.366003 1.85117C0.256393 1.75685 0.167369 1.64079 0.10452 1.51026C0.0416703 1.37974 0.00635198 1.23757 0.000781584 1.09268C-0.00478786 0.947786 0.0195108 0.803305 0.0721527 0.668297C0.124794 0.533289 0.204643 0.410673 0.306686 0.308144C0.408729 0.205614 0.530764 0.125385 0.665131 0.0724927C0.799498 0.0196 0.943296 -0.00481407 1.0875 0.000782108C1.2317 0.00637828 1.3732 0.0418664 1.5031 0.105015C1.63301 0.168163 1.74852 0.25761 1.84239 0.367745L9.69552 8.25829C9.89054 8.45541 10 8.72206 10 9C10 9.27794 9.89054 9.54459 9.69552 9.74171L1.84239 17.6323C1.74852 17.7424 1.63301 17.8318 1.5031 17.895C1.3732 17.9581 1.2317 17.9936 1.0875 17.9992C0.943295 18.0048 0.799497 17.9804 0.66513 17.9275C0.530763 17.8746 0.408728 17.7944 0.306685 17.6919C0.204641 17.5893 0.124792 17.4667 0.0721512 17.3317C0.0195094 17.1967 -0.00478927 17.0522 0.000780201 16.9073C0.00635063 16.7624 0.041669 16.6203 0.104519 16.4897C0.167368 16.3592 0.256392 16.2431 0.366002 16.1488L7.4757 9L0.366003 1.85117Z" fill="#3A643B"/>
</svg>
