<svg width="52" height="53" viewBox="0 0 52 53" fill="none" xmlns="http://www.w3.org/2000/svg">
<path d="M40.8151 12.0955C40.8138 11.7252 40.6027 11.3671 40.2725 11.1751L32.8714 6.98823C32.569 6.81714 32.2004 6.81734 31.8909 6.97518C26.936 9.50173 20.8612 9.50066 15.9072 6.97198C15.6012 6.81575 15.2371 6.81359 14.9362 6.97956L7.51098 11.075C7.18079 11.267 6.96968 11.6252 6.96843 11.9955C6.92823 23.1038 14.1179 34.5205 23.8919 39.1487C24.2852 39.3664 24.1453 39.3664 24.5386 39.1487C34.4967 33.6309 40.8182 23.1687 40.8151 12.0955Z" fill="#FDF8E5" stroke="#3A643C" stroke-miterlimit="10"/>
<path opacity="0.5" d="M21.4112 15.4187C21.2786 15.7271 21.2786 16.118 21.2786 16.8999V18.4974C21.2786 18.5353 21.2786 18.5543 21.2664 18.5661C21.2541 18.5779 21.2344 18.5779 21.195 18.5779H19.5365C18.7248 18.5779 18.3189 18.5779 17.9988 18.7057C17.5719 18.876 17.2328 19.2026 17.056 19.6138C16.9233 19.9222 16.9233 20.3131 16.9233 21.095C16.9233 21.8769 16.9233 22.2678 17.056 22.5762C17.2328 22.9873 17.5719 23.314 17.9988 23.4843C18.3189 23.612 18.7248 23.612 19.5365 23.612H21.195C21.2344 23.612 21.2541 23.612 21.2664 23.6238C21.2786 23.6356 21.2786 23.6546 21.2786 23.6926V25.2901C21.2786 26.072 21.2786 26.4629 21.4112 26.7713C21.5881 27.1824 21.9272 27.5091 22.3541 27.6794C22.6742 27.8072 23.0801 27.8072 23.8918 27.8072C24.7035 27.8072 25.1094 27.8072 25.4295 27.6794C25.8564 27.5091 26.1956 27.1824 26.3724 26.7713C26.505 26.4629 26.505 26.072 26.505 25.2901V23.6926C26.505 23.6546 26.505 23.6356 26.5172 23.6238C26.5295 23.612 26.5492 23.612 26.5886 23.612H28.2471C29.0588 23.612 29.4647 23.612 29.7848 23.4843C30.2117 23.314 30.5509 22.9873 30.7277 22.5762C30.8603 22.2678 30.8603 21.8769 30.8603 21.095C30.8603 20.3131 30.8603 19.9222 30.7277 19.6138C30.5509 19.2026 30.2117 18.876 29.7848 18.7057C29.4647 18.5779 29.0588 18.5779 28.2471 18.5779H26.5886C26.5492 18.5779 26.5295 18.5779 26.5172 18.5661C26.505 18.5543 26.505 18.5353 26.505 18.4974V16.8999C26.505 16.118 26.505 15.7271 26.3724 15.4187C26.1956 15.0075 25.8564 14.6809 25.4295 14.5105C25.1094 14.3828 24.7035 14.3828 23.8918 14.3828C23.0801 14.3828 22.6742 14.3828 22.3541 14.5105C21.9272 14.6809 21.5881 15.0075 21.4112 15.4187Z" fill="#E0E8E2" stroke="#3A643C"/>
</svg>
